<svg width="1440" height="657" viewBox="0 0 1440 657" fill="none" xmlns="http://www.w3.org/2000/svg">
<rect x="0.5" width="1440" height="618" fill="url(#paint0_radial)"/>
<g opacity="0.4">
<rect opacity="0.4" x="776.457" y="336.587" width="20" height="91" fill="url(#paint1_linear)"/>
<rect opacity="0.4" x="744.457" y="374.587" width="20" height="53" fill="url(#paint2_linear)"/>
<rect opacity="0.4" x="808.457" y="313.587" width="20" height="114" fill="url(#paint3_linear)"/>
<rect opacity="0.4" x="840.457" y="336.587" width="20" height="91" fill="url(#paint4_linear)"/>
<rect opacity="0.4" x="872.457" y="356.587" width="20" height="71" fill="url(#paint5_linear)"/>
<rect opacity="0.4" x="904.457" y="356.587" width="20" height="71" fill="url(#paint6_linear)"/>
<rect opacity="0.4" x="936.457" y="313.587" width="20" height="114" fill="url(#paint7_linear)"/>
<rect opacity="0.4" x="968.457" y="269.587" width="20" height="158" fill="url(#paint8_linear)"/>
<rect opacity="0.4" x="1000.46" y="280.587" width="20" height="147" fill="url(#paint9_linear)"/>
<rect opacity="0.4" x="1032.46" y="316.587" width="20" height="111" fill="url(#paint10_linear)"/>
<rect opacity="0.4" x="1064.46" y="339.587" width="20" height="88" fill="url(#paint11_linear)"/>
<rect opacity="0.4" x="1096.46" y="388.587" width="20" height="40" fill="url(#paint12_linear)"/>
<rect opacity="0.4" x="1128.46" y="367.587" width="20" height="61" fill="url(#paint13_linear)"/>
<rect opacity="0.4" x="1160.46" y="311.587" width="20" height="117" fill="url(#paint14_linear)"/>
<rect opacity="0.4" x="1192.46" y="248.587" width="20" height="180" fill="url(#paint15_linear)"/>
<rect opacity="0.4" x="1224.46" y="148.587" width="20" height="280" fill="url(#paint16_linear)"/>
<rect opacity="0.4" x="1256.46" y="124.587" width="20" height="304" fill="url(#paint17_linear)"/>
<rect opacity="0.4" x="1288.46" y="77.5874" width="20" height="351" fill="url(#paint18_linear)"/>
</g>
<g opacity="0.4">
<path d="M8.50012 619.095H1448V618.368H8.50012V619.095Z" fill="url(#paint19_linear)"/>
<path d="M8.5 587.1H1448V586.373H8.5V587.1Z" fill="url(#paint20_linear)"/>
<path d="M8.5 547.833H1448V546.379H8.5V547.833Z" fill="url(#paint21_linear)"/>
<path d="M8.5 502.021H1448V500.567H8.5V502.021Z" fill="url(#paint22_linear)"/>
<path d="M8.5 450.393H1448V448.938H8.5V450.393Z" fill="url(#paint23_linear)"/>
<path d="M8 390.042H1447.5V388.587H8V390.042Z" fill="url(#paint24_linear)"/>
<path fill-rule="evenodd" clip-rule="evenodd" d="M0.739657 654.885L407.772 364.667L408.271 365.962L1.23869 656.18L0.739657 654.885Z" fill="url(#paint25_linear)"/>
<path fill-rule="evenodd" clip-rule="evenodd" d="M-59.6591 573.284L330.964 364.587L331.463 365.883L-59.16 574.579L-59.6591 573.284Z" fill="url(#paint26_linear)"/>
<path fill-rule="evenodd" clip-rule="evenodd" d="M-268.138 573.284L237.698 364.587L238.197 365.883L-267.639 574.579L-268.138 573.284Z" fill="url(#paint27_linear)"/>
<path fill-rule="evenodd" clip-rule="evenodd" d="M-482.103 573.284L106.027 364.587L106.526 365.883L-481.604 574.579L-482.103 573.284Z" fill="url(#paint28_linear)"/>
<path fill-rule="evenodd" clip-rule="evenodd" d="M193.5 654.575L479.74 364.587L480.5 366.193L194.26 656.18L193.5 654.575Z" fill="url(#paint29_linear)"/>
<path fill-rule="evenodd" clip-rule="evenodd" d="M464.5 655.216L624.638 365.913L625.5 366.877L465.362 656.18L464.5 655.216Z" fill="url(#paint30_linear)"/>
<path fill-rule="evenodd" clip-rule="evenodd" d="M333.5 655.048L554.724 365.913L555.5 367.045L334.276 656.18L333.5 655.048Z" fill="url(#paint31_linear)"/>
<path fill-rule="evenodd" clip-rule="evenodd" d="M586.5 655.562L674.497 365.913L675.5 366.531L587.503 656.18L586.5 655.562Z" fill="url(#paint32_linear)"/>
<path fill-rule="evenodd" clip-rule="evenodd" d="M1425.26 654.885L1018.23 364.667L1017.73 365.962L1424.76 656.18L1425.26 654.885Z" fill="url(#paint33_linear)"/>
<path fill-rule="evenodd" clip-rule="evenodd" d="M1485.66 573.284L1095.04 364.587L1094.54 365.883L1485.16 574.579L1485.66 573.284Z" fill="url(#paint34_linear)"/>
<path fill-rule="evenodd" clip-rule="evenodd" d="M1694.14 573.284L1188.3 364.587L1187.8 365.883L1693.64 574.579L1694.14 573.284Z" fill="url(#paint35_linear)"/>
<path fill-rule="evenodd" clip-rule="evenodd" d="M1908.1 573.284L1319.97 364.587L1319.47 365.883L1907.6 574.579L1908.1 573.284Z" fill="url(#paint36_linear)"/>
<path fill-rule="evenodd" clip-rule="evenodd" d="M1232.5 654.575L946.26 364.587L945.5 366.193L1231.74 656.18L1232.5 654.575Z" fill="url(#paint37_linear)"/>
<path fill-rule="evenodd" clip-rule="evenodd" d="M961.5 655.216L801.362 365.913L800.5 366.877L960.638 656.18L961.5 655.216Z" fill="url(#paint38_linear)"/>
<path fill-rule="evenodd" clip-rule="evenodd" d="M1092.5 655.048L871.276 365.913L870.5 367.045L1091.72 656.18L1092.5 655.048Z" fill="url(#paint39_linear)"/>
<path fill-rule="evenodd" clip-rule="evenodd" d="M839.5 655.562L751.503 365.913L750.5 366.531L838.497 656.18L839.5 655.562Z" fill="url(#paint40_linear)"/>
<path fill-rule="evenodd" clip-rule="evenodd" d="M712.5 656.18V365.913H713.5V656.18H712.5Z" fill="url(#paint41_linear)"/>
</g>
<defs>
<radialGradient id="paint0_radial" cx="0" cy="0" r="1" gradientUnits="userSpaceOnUse" gradientTransform="translate(720.5 618) rotate(-90) scale(710.372 1655.24)">
<stop stop-color="#18A9DF"/>
<stop offset="1" stop-color="#1A0066"/>
</radialGradient>
<linearGradient id="paint1_linear" x1="786.457" y1="336.587" x2="786.457" y2="427.587" gradientUnits="userSpaceOnUse">
<stop stop-color="#E6E4EB"/>
<stop offset="1" stop-color="#E6E4EB" stop-opacity="0"/>
</linearGradient>
<linearGradient id="paint2_linear" x1="754.457" y1="374.587" x2="754.457" y2="427.587" gradientUnits="userSpaceOnUse">
<stop stop-color="#E6E4EB"/>
<stop offset="1" stop-color="#E6E4EB" stop-opacity="0"/>
</linearGradient>
<linearGradient id="paint3_linear" x1="818.457" y1="313.587" x2="818.457" y2="427.587" gradientUnits="userSpaceOnUse">
<stop stop-color="#E6E4EB"/>
<stop offset="1" stop-color="#E6E4EB" stop-opacity="0"/>
</linearGradient>
<linearGradient id="paint4_linear" x1="850.457" y1="336.587" x2="850.457" y2="427.587" gradientUnits="userSpaceOnUse">
<stop stop-color="#E6E4EB"/>
<stop offset="1" stop-color="#E6E4EB" stop-opacity="0"/>
</linearGradient>
<linearGradient id="paint5_linear" x1="882.457" y1="356.587" x2="882.457" y2="427.587" gradientUnits="userSpaceOnUse">
<stop stop-color="#E6E4EB"/>
<stop offset="1" stop-color="#E6E4EB" stop-opacity="0"/>
</linearGradient>
<linearGradient id="paint6_linear" x1="914.457" y1="356.587" x2="914.457" y2="427.587" gradientUnits="userSpaceOnUse">
<stop stop-color="#E6E4EB"/>
<stop offset="1" stop-color="#E6E4EB" stop-opacity="0"/>
</linearGradient>
<linearGradient id="paint7_linear" x1="946.457" y1="313.587" x2="946.457" y2="427.587" gradientUnits="userSpaceOnUse">
<stop stop-color="#E6E4EB"/>
<stop offset="1" stop-color="#E6E4EB" stop-opacity="0"/>
</linearGradient>
<linearGradient id="paint8_linear" x1="978.457" y1="269.587" x2="978.457" y2="427.587" gradientUnits="userSpaceOnUse">
<stop stop-color="#E6E4EB"/>
<stop offset="1" stop-color="#E6E4EB" stop-opacity="0"/>
</linearGradient>
<linearGradient id="paint9_linear" x1="1010.46" y1="280.587" x2="1010.46" y2="427.587" gradientUnits="userSpaceOnUse">
<stop stop-color="#E6E4EB"/>
<stop offset="1" stop-color="#E6E4EB" stop-opacity="0"/>
</linearGradient>
<linearGradient id="paint10_linear" x1="1042.46" y1="316.587" x2="1042.46" y2="427.587" gradientUnits="userSpaceOnUse">
<stop stop-color="#E6E4EB"/>
<stop offset="1" stop-color="#E6E4EB" stop-opacity="0"/>
</linearGradient>
<linearGradient id="paint11_linear" x1="1074.46" y1="339.587" x2="1074.46" y2="427.587" gradientUnits="userSpaceOnUse">
<stop stop-color="#E6E4EB"/>
<stop offset="1" stop-color="#E6E4EB" stop-opacity="0"/>
</linearGradient>
<linearGradient id="paint12_linear" x1="1106.46" y1="388.587" x2="1106.46" y2="428.587" gradientUnits="userSpaceOnUse">
<stop stop-color="#E6E4EB"/>
<stop offset="1" stop-color="#E6E4EB" stop-opacity="0"/>
</linearGradient>
<linearGradient id="paint13_linear" x1="1138.46" y1="367.587" x2="1138.46" y2="428.587" gradientUnits="userSpaceOnUse">
<stop stop-color="#E6E4EB"/>
<stop offset="1" stop-color="#E6E4EB" stop-opacity="0"/>
</linearGradient>
<linearGradient id="paint14_linear" x1="1170.46" y1="311.587" x2="1170.46" y2="428.587" gradientUnits="userSpaceOnUse">
<stop stop-color="#E6E4EB"/>
<stop offset="1" stop-color="#E6E4EB" stop-opacity="0"/>
</linearGradient>
<linearGradient id="paint15_linear" x1="1202.46" y1="248.587" x2="1202.46" y2="428.587" gradientUnits="userSpaceOnUse">
<stop stop-color="#E6E4EB"/>
<stop offset="1" stop-color="#E6E4EB" stop-opacity="0"/>
</linearGradient>
<linearGradient id="paint16_linear" x1="1234.46" y1="148.587" x2="1234.46" y2="428.587" gradientUnits="userSpaceOnUse">
<stop stop-color="#E6E4EB"/>
<stop offset="1" stop-color="#E6E4EB" stop-opacity="0"/>
</linearGradient>
<linearGradient id="paint17_linear" x1="1266.46" y1="124.587" x2="1266.46" y2="428.587" gradientUnits="userSpaceOnUse">
<stop stop-color="#E6E4EB"/>
<stop offset="1" stop-color="#E6E4EB" stop-opacity="0"/>
</linearGradient>
<linearGradient id="paint18_linear" x1="1298.46" y1="77.5874" x2="1298.46" y2="428.587" gradientUnits="userSpaceOnUse">
<stop stop-color="#E6E4EB"/>
<stop offset="1" stop-color="#E6E4EB" stop-opacity="0"/>
</linearGradient>
<linearGradient id="paint19_linear" x1="728.25" y1="619.095" x2="728.25" y2="618.368" gradientUnits="userSpaceOnUse">
<stop stop-color="white" stop-opacity="0.7"/>
<stop offset="0.192708" stop-color="white" stop-opacity="0.5"/>
<stop offset="1" stop-color="white" stop-opacity="0"/>
</linearGradient>
<linearGradient id="paint20_linear" x1="728.25" y1="587.1" x2="728.25" y2="586.373" gradientUnits="userSpaceOnUse">
<stop stop-color="white" stop-opacity="0.7"/>
<stop offset="0.192708" stop-color="white" stop-opacity="0.5"/>
<stop offset="1" stop-color="white" stop-opacity="0"/>
</linearGradient>
<linearGradient id="paint21_linear" x1="728.25" y1="547.833" x2="728.25" y2="546.379" gradientUnits="userSpaceOnUse">
<stop stop-color="white" stop-opacity="0.7"/>
<stop offset="0.192708" stop-color="white" stop-opacity="0.5"/>
<stop offset="1" stop-color="white" stop-opacity="0"/>
</linearGradient>
<linearGradient id="paint22_linear" x1="728.25" y1="502.021" x2="728.25" y2="500.567" gradientUnits="userSpaceOnUse">
<stop stop-color="white" stop-opacity="0.7"/>
<stop offset="0.192708" stop-color="white" stop-opacity="0.5"/>
<stop offset="1" stop-color="white" stop-opacity="0"/>
</linearGradient>
<linearGradient id="paint23_linear" x1="728.25" y1="450.393" x2="728.25" y2="448.938" gradientUnits="userSpaceOnUse">
<stop stop-color="white" stop-opacity="0.7"/>
<stop offset="0.192708" stop-color="white" stop-opacity="0.5"/>
<stop offset="1" stop-color="white" stop-opacity="0"/>
</linearGradient>
<linearGradient id="paint24_linear" x1="727.75" y1="390.042" x2="727.75" y2="388.587" gradientUnits="userSpaceOnUse">
<stop stop-color="white" stop-opacity="0.7"/>
<stop offset="0.192708" stop-color="white" stop-opacity="0.5"/>
<stop offset="1" stop-color="white" stop-opacity="0"/>
</linearGradient>
<linearGradient id="paint25_linear" x1="253.857" y1="364.667" x2="253.857" y2="574.658" gradientUnits="userSpaceOnUse">
<stop stop-color="white" stop-opacity="0"/>
<stop offset="0.817721" stop-color="white" stop-opacity="0.5"/>
<stop offset="1" stop-color="white" stop-opacity="0.7"/>
</linearGradient>
<linearGradient id="paint26_linear" x1="177.049" y1="364.587" x2="177.049" y2="574.579" gradientUnits="userSpaceOnUse">
<stop stop-color="white" stop-opacity="0"/>
<stop offset="0.78647" stop-color="white" stop-opacity="0.5"/>
<stop offset="1" stop-color="white" stop-opacity="0.7"/>
</linearGradient>
<linearGradient id="paint27_linear" x1="83.7824" y1="364.587" x2="83.7824" y2="574.579" gradientUnits="userSpaceOnUse">
<stop stop-color="white" stop-opacity="0"/>
<stop offset="0.760427" stop-color="white" stop-opacity="0.5"/>
<stop offset="1" stop-color="white" stop-opacity="0.7"/>
</linearGradient>
<linearGradient id="paint28_linear" x1="-47.8886" y1="364.587" x2="-47.8886" y2="574.579" gradientUnits="userSpaceOnUse">
<stop stop-color="white" stop-opacity="0"/>
<stop offset="0.765636" stop-color="white" stop-opacity="0.5"/>
<stop offset="1" stop-color="white" stop-opacity="0.7"/>
</linearGradient>
<linearGradient id="paint29_linear" x1="337" y1="364.587" x2="337" y2="656.18" gradientUnits="userSpaceOnUse">
<stop stop-color="white" stop-opacity="0"/>
<stop offset="0.838555" stop-color="white" stop-opacity="0.5"/>
<stop offset="1" stop-color="white" stop-opacity="0.7"/>
</linearGradient>
<linearGradient id="paint30_linear" x1="545" y1="365.913" x2="545" y2="656.18" gradientUnits="userSpaceOnUse">
<stop stop-color="white" stop-opacity="0"/>
<stop offset="0.838555" stop-color="white" stop-opacity="0.5"/>
<stop offset="1" stop-color="white" stop-opacity="0.7"/>
</linearGradient>
<linearGradient id="paint31_linear" x1="444.5" y1="365.913" x2="444.5" y2="656.18" gradientUnits="userSpaceOnUse">
<stop stop-color="white" stop-opacity="0"/>
<stop offset="0.838555" stop-color="white" stop-opacity="0.5"/>
<stop offset="1" stop-color="white" stop-opacity="0.7"/>
</linearGradient>
<linearGradient id="paint32_linear" x1="631" y1="365.913" x2="631" y2="656.18" gradientUnits="userSpaceOnUse">
<stop stop-color="white" stop-opacity="0"/>
<stop offset="0.838555" stop-color="white" stop-opacity="0.5"/>
<stop offset="1" stop-color="white" stop-opacity="0.7"/>
</linearGradient>
<linearGradient id="paint33_linear" x1="1172.14" y1="364.667" x2="1172.14" y2="574.658" gradientUnits="userSpaceOnUse">
<stop stop-color="white" stop-opacity="0"/>
<stop offset="0.817721" stop-color="white" stop-opacity="0.5"/>
<stop offset="1" stop-color="white" stop-opacity="0.7"/>
</linearGradient>
<linearGradient id="paint34_linear" x1="1248.95" y1="364.587" x2="1248.95" y2="574.579" gradientUnits="userSpaceOnUse">
<stop stop-color="white" stop-opacity="0"/>
<stop offset="0.78647" stop-color="white" stop-opacity="0.5"/>
<stop offset="1" stop-color="white" stop-opacity="0.7"/>
</linearGradient>
<linearGradient id="paint35_linear" x1="1342.22" y1="364.587" x2="1342.22" y2="574.579" gradientUnits="userSpaceOnUse">
<stop stop-color="white" stop-opacity="0"/>
<stop offset="0.760427" stop-color="white" stop-opacity="0.5"/>
<stop offset="1" stop-color="white" stop-opacity="0.7"/>
</linearGradient>
<linearGradient id="paint36_linear" x1="1473.89" y1="364.587" x2="1473.89" y2="574.579" gradientUnits="userSpaceOnUse">
<stop stop-color="white" stop-opacity="0"/>
<stop offset="0.765636" stop-color="white" stop-opacity="0.5"/>
<stop offset="1" stop-color="white" stop-opacity="0.7"/>
</linearGradient>
<linearGradient id="paint37_linear" x1="1089" y1="364.587" x2="1089" y2="656.18" gradientUnits="userSpaceOnUse">
<stop stop-color="white" stop-opacity="0"/>
<stop offset="0.838555" stop-color="white" stop-opacity="0.5"/>
<stop offset="1" stop-color="white" stop-opacity="0.7"/>
</linearGradient>
<linearGradient id="paint38_linear" x1="881" y1="365.913" x2="881" y2="656.18" gradientUnits="userSpaceOnUse">
<stop stop-color="white" stop-opacity="0"/>
<stop offset="0.838555" stop-color="white" stop-opacity="0.5"/>
<stop offset="1" stop-color="white" stop-opacity="0.7"/>
</linearGradient>
<linearGradient id="paint39_linear" x1="981.5" y1="365.913" x2="981.5" y2="656.18" gradientUnits="userSpaceOnUse">
<stop stop-color="white" stop-opacity="0"/>
<stop offset="0.838555" stop-color="white" stop-opacity="0.5"/>
<stop offset="1" stop-color="white" stop-opacity="0.7"/>
</linearGradient>
<linearGradient id="paint40_linear" x1="795" y1="365.913" x2="795" y2="656.18" gradientUnits="userSpaceOnUse">
<stop stop-color="white" stop-opacity="0"/>
<stop offset="0.838555" stop-color="white" stop-opacity="0.5"/>
<stop offset="1" stop-color="white" stop-opacity="0.7"/>
</linearGradient>
<linearGradient id="paint41_linear" x1="713" y1="365.913" x2="713" y2="675.773" gradientUnits="userSpaceOnUse">
<stop stop-color="white" stop-opacity="0"/>
<stop offset="0.75001" stop-color="white" stop-opacity="0.5"/>
<stop offset="1" stop-color="white" stop-opacity="0.7"/>
</linearGradient>
</defs>
</svg>
