<svg width="326" height="69" viewBox="0 0 326 69" fill="none" xmlns="http://www.w3.org/2000/svg">
<path d="M55.4626 45.9677L40.7708 60.6528C37.057 64.4209 30.9898 64.4686 27.2148 60.748C27.1808 60.714 27.1468 60.68 27.1196 60.6528L7.89093 41.4105C4.07513 37.6083 4.06153 31.4323 7.86372 27.6165C7.87052 27.6097 7.88413 27.5961 7.89093 27.5893L27.14 8.34023C30.8674 4.57204 36.9414 4.53803 40.7095 8.25861C40.7367 8.28581 40.764 8.31302 40.7912 8.34023L54.8232 22.4199L58.3602 18.883L44.3145 4.8033C41.5598 2.06218 37.8392 0.511372 33.9486 0.490967C30.0579 0.511372 26.3306 2.05538 23.5758 4.8033L4.3336 24.0524C-1.43432 29.8135 -1.44792 39.1591 4.31319 44.927C4.31999 44.9338 4.32679 44.9406 4.3336 44.9474L23.5758 64.1965C26.0789 66.6995 29.405 68.2163 32.9351 68.468C33.282 68.468 33.6153 68.5088 33.9418 68.5088C34.2751 68.5088 34.6219 68.5088 34.9484 68.468C38.4786 68.2163 41.8046 66.6995 44.3077 64.1965L58.9995 49.5046L55.4626 45.9677Z" fill="#F7CE2A"/>
<path fill-rule="evenodd" clip-rule="evenodd" d="M33.8808 17.5762L46.8041 30.4996L50.205 27.0987L37.2816 14.1753C36.4042 13.1686 35.1255 12.6041 33.7923 12.6449C32.5544 12.7401 31.3981 13.2911 30.5479 14.1957L20.4064 24.344C18.1822 26.5749 18.1822 28.8127 20.4064 31.0505L33.8808 44.5317V37.8251L23.7665 27.6972L33.8808 17.5762Z" fill="#231F20"/>
<path fill-rule="evenodd" clip-rule="evenodd" d="M34.003 51.422L21.0796 38.4986L17.6787 41.8995L30.6021 54.8229C31.4727 55.8296 32.7583 56.3941 34.0914 56.3533C35.3293 56.2581 36.4856 55.7003 37.3359 54.7957L47.4705 44.6543C49.7083 42.4165 49.7083 40.1787 47.4705 37.9477L34.003 24.4666V31.1731L44.124 41.301L34.003 51.422Z" fill="#4F4C4D"/>
<path fill-rule="evenodd" clip-rule="evenodd" d="M50.1843 33.8807L53.558 30.4866L56.9385 33.8807L53.558 37.2543L50.1843 33.8807Z" fill="#231F20"/>
<path fill-rule="evenodd" clip-rule="evenodd" d="M11.0469 34.594L14.4274 31.2L17.801 34.594L14.4274 37.9677L11.0469 34.594Z" fill="#4F4C4D"/>
<path d="M79.4256 51.7279V37.0769H75.3445V31.0437H79.4256V17.2701H97.7904C100.402 17.1613 102.953 18.0319 104.953 19.7119C106.803 21.3376 107.728 23.6025 107.728 26.5137C107.728 29.8466 106.32 32.132 103.497 33.3767C107.578 34.6895 109.619 37.485 109.619 41.7701C109.734 44.518 108.639 47.1775 106.626 49.0412C104.538 50.8913 101.817 51.864 99.0283 51.7619L79.4256 51.7279ZM85.792 23.3033V31.0437H97.0966C98.2121 31.0845 99.3072 30.7172 100.164 29.9962C100.98 29.282 101.429 28.2346 101.375 27.1463C101.436 26.0512 100.98 24.9969 100.137 24.2963C99.28 23.6025 98.1985 23.2421 97.0966 23.2761L85.792 23.3033ZM85.792 37.0769V45.6947H98.3549C99.6064 45.7151 100.824 45.307 101.81 44.5384C102.79 43.8038 103.341 42.6339 103.293 41.4096C103.341 40.1853 102.796 39.0154 101.837 38.2604C100.851 37.4646 99.6201 37.0429 98.3549 37.0769H85.792V37.0769Z" fill="#121212"/>
<path d="M79.4256 51.7279V37.0769H75.3445V31.0437H79.4256V17.2701H97.7904C100.402 17.1613 102.953 18.0319 104.953 19.7119C106.803 21.3376 107.728 23.6025 107.728 26.5137C107.728 29.8466 106.32 32.132 103.497 33.3767C107.578 34.6895 109.619 37.485 109.619 41.7701C109.734 44.518 108.639 47.1775 106.626 49.0412C104.538 50.8913 101.817 51.864 99.0283 51.7619L79.4256 51.7279ZM85.792 23.3033V31.0437H97.0966C98.2121 31.0845 99.3072 30.7172 100.164 29.9962C100.98 29.282 101.429 28.2346 101.375 27.1463C101.436 26.0512 100.98 24.9969 100.137 24.2963C99.28 23.6025 98.1985 23.2421 97.0966 23.2761L85.792 23.3033ZM85.792 37.0769V45.6947H98.3549C99.6064 45.7151 100.824 45.307 101.81 44.5384C102.79 43.8038 103.341 42.6339 103.293 41.4096C103.341 40.1853 102.796 39.0154 101.837 38.2604C100.851 37.4646 99.6201 37.0429 98.3549 37.0769H85.792V37.0769Z" fill="white" fill-opacity="0.08"/>
<path d="M112.455 46.0639L117.284 41.7312C120.25 44.8736 123.651 46.4312 127.487 46.3972C129.317 46.4652 131.14 46.1183 132.813 45.3837C134.751 44.5063 135.724 43.1391 135.724 41.3027C135.724 39.2961 133.806 37.9562 129.963 37.2964C123.617 36.2013 120.046 35.5075 119.264 35.2151C115.421 33.7527 113.496 31.0116 113.503 26.9849C113.503 23.618 115.108 20.9857 118.325 19.0812C121.182 17.3944 124.453 16.5374 127.766 16.6122C133.473 16.6122 138.043 18.367 141.485 21.8836L136.765 26.1075C133.983 23.3595 130.874 21.9992 127.439 22.0264C125.834 21.9652 124.236 22.2713 122.773 22.9378C121.053 23.7813 120.196 25.0056 120.196 26.6108C120.196 28.6241 122.114 29.9437 125.957 30.5626C132.207 31.5897 135.772 32.2699 136.656 32.6032C140.499 34.0996 142.424 36.8815 142.417 40.9422C142.417 44.6355 140.737 47.5671 137.37 49.7233C134.323 51.6006 130.793 52.546 127.215 52.444C121.61 52.5324 116.23 50.2062 112.455 46.0639Z" fill="#121212"/>
<path d="M112.455 46.0639L117.284 41.7312C120.25 44.8736 123.651 46.4312 127.487 46.3972C129.317 46.4652 131.14 46.1183 132.813 45.3837C134.751 44.5063 135.724 43.1391 135.724 41.3027C135.724 39.2961 133.806 37.9562 129.963 37.2964C123.617 36.2013 120.046 35.5075 119.264 35.2151C115.421 33.7527 113.496 31.0116 113.503 26.9849C113.503 23.618 115.108 20.9857 118.325 19.0812C121.182 17.3944 124.453 16.5374 127.766 16.6122C133.473 16.6122 138.043 18.367 141.485 21.8836L136.765 26.1075C133.983 23.3595 130.874 21.9992 127.439 22.0264C125.834 21.9652 124.236 22.2713 122.773 22.9378C121.053 23.7813 120.196 25.0056 120.196 26.6108C120.196 28.6241 122.114 29.9437 125.957 30.5626C132.207 31.5897 135.772 32.2699 136.656 32.6032C140.499 34.0996 142.424 36.8815 142.417 40.9422C142.417 44.6355 140.737 47.5671 137.37 49.7233C134.323 51.6006 130.793 52.546 127.215 52.444C121.61 52.5324 116.23 50.2062 112.455 46.0639Z" fill="white" fill-opacity="0.08"/>
<path d="M174.406 41.6352L179.561 45.383C176.079 49.9674 170.61 52.5997 164.856 52.4637C159.972 52.5725 155.252 50.7292 151.742 47.3351C148.205 44.0159 146.246 39.3498 146.369 34.5002C146.253 29.6573 148.205 24.9981 151.742 21.6856C155.259 18.2983 159.979 16.4482 164.856 16.5571C170.603 16.4142 176.079 19.0397 179.561 23.6173L174.297 27.5691C172.243 24.3655 168.658 22.4678 164.856 22.5698C161.707 22.529 158.687 23.801 156.517 26.0864C151.912 30.732 151.912 38.2275 156.517 42.8732C161.095 47.5188 168.563 47.5732 173.209 42.9956C173.644 42.5671 174.045 42.1046 174.406 41.6148V41.6352Z" fill="#121212"/>
<path d="M174.406 41.6352L179.561 45.383C176.079 49.9674 170.61 52.5997 164.856 52.4637C159.972 52.5725 155.252 50.7292 151.742 47.3351C148.205 44.0159 146.246 39.3498 146.369 34.5002C146.253 29.6573 148.205 24.9981 151.742 21.6856C155.259 18.2983 159.979 16.4482 164.856 16.5571C170.603 16.4142 176.079 19.0397 179.561 23.6173L174.297 27.5691C172.243 24.3655 168.658 22.4678 164.856 22.5698C161.707 22.529 158.687 23.801 156.517 26.0864C151.912 30.732 151.912 38.2275 156.517 42.8732C161.095 47.5188 168.563 47.5732 173.209 42.9956C173.644 42.5671 174.045 42.1046 174.406 41.6148V41.6352Z" fill="white" fill-opacity="0.08"/>
<path d="M191.798 17.6108V51.9531H188.512V17.6108H191.798Z" fill="#121212"/>
<path d="M191.798 17.6108V51.9531H188.512V17.6108H191.798Z" fill="white" fill-opacity="0.08"/>
<path d="M217.699 27.6983H220.787V51.9535H217.74V47.1446C215.699 50.4843 212.046 52.4977 208.129 52.4432C201.259 52.4432 195.763 47.5392 195.763 39.8327C195.763 32.1263 201.306 27.3787 208.176 27.3787C211.904 27.3787 215.876 29.0927 217.699 32.5276V27.6983ZM199.062 39.8123C199.062 45.553 203.177 49.3348 208.278 49.3348C220.794 49.3348 220.794 30.3442 208.278 30.3442C203.177 30.3646 199.062 34.1464 199.062 39.8327V39.8123Z" fill="#121212"/>
<path d="M217.699 27.6983H220.787V51.9535H217.74V47.1446C215.699 50.4843 212.046 52.4977 208.129 52.4432C201.259 52.4432 195.763 47.5392 195.763 39.8327C195.763 32.1263 201.306 27.3787 208.176 27.3787C211.904 27.3787 215.876 29.0927 217.699 32.5276V27.6983ZM199.062 39.8123C199.062 45.553 203.177 49.3348 208.278 49.3348C220.794 49.3348 220.794 30.3442 208.278 30.3442C203.177 30.3646 199.062 34.1464 199.062 39.8327V39.8123Z" fill="white" fill-opacity="0.08"/>
<path d="M228.949 27.6968V41.3003C228.949 46.3541 231.989 49.2448 236.9 49.1972C241.56 49.1972 244.845 45.5651 244.845 40.9058V27.6968H248.082V51.9519H245.042L244.94 47.8709C242.9 50.9657 239.744 52.2852 236.356 52.3328C230.078 52.3328 225.664 48.2518 225.664 41.348V27.6968H228.949Z" fill="#121212"/>
<path d="M228.949 27.6968V41.3003C228.949 46.3541 231.989 49.2448 236.9 49.1972C241.56 49.1972 244.845 45.5651 244.845 40.9058V27.6968H248.082V51.9519H245.042L244.94 47.8709C242.9 50.9657 239.744 52.2852 236.356 52.3328C230.078 52.3328 225.664 48.2518 225.664 41.348V27.6968H228.949Z" fill="white" fill-opacity="0.08"/>
<path d="M272.392 51.9543V38.3507C272.392 33.1405 269.345 30.4198 264.489 30.4198C259.782 30.4674 256.544 34.0996 256.544 38.7588V51.9543H253.259V27.6991H256.401L256.496 31.7802C258.333 28.9234 261.53 27.2298 264.931 27.3114C271.216 27.3114 275.725 31.0388 275.725 38.3031V51.9067L272.392 51.9543Z" fill="#121212"/>
<path d="M272.392 51.9543V38.3507C272.392 33.1405 269.345 30.4198 264.489 30.4198C259.782 30.4674 256.544 34.0996 256.544 38.7588V51.9543H253.259V27.6991H256.401L256.496 31.7802C258.333 28.9234 261.53 27.2298 264.931 27.3114C271.216 27.3114 275.725 31.0388 275.725 38.3031V51.9067L272.392 51.9543Z" fill="white" fill-opacity="0.08"/>
<path d="M300.593 48.6689C298.212 51.0427 294.974 52.3691 291.614 52.3419C284.751 52.3419 279.058 47.7371 279.058 39.8334C279.058 31.9297 284.602 27.3793 291.614 27.3793C294.845 27.3453 297.947 28.6376 300.198 30.9571L298.042 33.0656C296.348 31.3856 294.056 30.4469 291.669 30.4673C286.513 30.4673 282.343 33.8682 282.343 39.8334C282.343 45.955 286.56 49.2062 291.614 49.2062C294.124 49.2198 296.539 48.2404 298.334 46.4855L300.593 48.6689Z" fill="#121212"/>
<path d="M300.593 48.6689C298.212 51.0427 294.974 52.3691 291.614 52.3419C284.751 52.3419 279.058 47.7371 279.058 39.8334C279.058 31.9297 284.602 27.3793 291.614 27.3793C294.845 27.3453 297.947 28.6376 300.198 30.9571L298.042 33.0656C296.348 31.3856 294.056 30.4469 291.669 30.4673C286.513 30.4673 282.343 33.8682 282.343 39.8334C282.343 45.955 286.56 49.2062 291.614 49.2062C294.124 49.2198 296.539 48.2404 298.334 46.4855L300.593 48.6689Z" fill="white" fill-opacity="0.08"/>
<path d="M306.721 17.6108V31.9354C308.761 28.6501 311.924 27.4258 315.162 27.3782C321.93 27.3782 325.262 31.8402 325.262 38.3631V51.9667H321.977V38.3631C321.977 33.5066 319.624 30.5138 314.767 30.5138C310.06 30.5138 306.768 34.1936 306.768 38.9004V51.9531H303.483V17.6108H306.721Z" fill="#121212"/>
<path d="M306.721 17.6108V31.9354C308.761 28.6501 311.924 27.4258 315.162 27.3782C321.93 27.3782 325.262 31.8402 325.262 38.3631V51.9667H321.977V38.3631C321.977 33.5066 319.624 30.5138 314.767 30.5138C310.06 30.5138 306.768 34.1936 306.768 38.9004V51.9531H303.483V17.6108H306.721Z" fill="white" fill-opacity="0.08"/>
</svg>
