<svg width="141" height="141" viewBox="0 0 141 141" fill="none" xmlns="http://www.w3.org/2000/svg">
<g filter="url(#filter0_d)">
<rect x="30.9451" y="26.3999" width="80" height="80" rx="40" fill="white"/>
<path d="M92.9451 66.3999L88.0651 60.8199L88.7451 53.4399L81.5251 51.7999L77.7451 45.3999L70.9451 48.3199L64.1451 45.3999L60.3651 51.7799L53.1451 53.3999L53.8251 60.7999L48.9451 66.3999L53.8251 71.9799L53.1451 79.3799L60.3651 81.0199L64.1451 87.3999L70.9451 84.4599L77.7451 87.3799L81.5251 80.9999L88.7451 79.3599L88.0651 71.9799L92.9451 66.3999ZM67.1251 75.8399L59.5251 68.2199L62.4851 65.2599L67.1251 69.9199L78.8251 58.1799L81.7851 61.1399L67.1251 75.8399Z" fill="#F86296"/>
</g>
<defs>
<filter id="filter0_d" x="0.945129" y="0.399902" width="140" height="140" filterUnits="userSpaceOnUse" color-interpolation-filters="sRGB">
<feFlood flood-opacity="0" result="BackgroundImageFix"/>
<feColorMatrix in="SourceAlpha" type="matrix" values="0 0 0 0 0 0 0 0 0 0 0 0 0 0 0 0 0 0 127 0" result="hardAlpha"/>
<feMorphology radius="10" operator="dilate" in="SourceAlpha" result="effect1_dropShadow"/>
<feOffset dy="4"/>
<feGaussianBlur stdDeviation="10"/>
<feComposite in2="hardAlpha" operator="out"/>
<feColorMatrix type="matrix" values="0 0 0 0 0.504167 0 0 0 0 0.502066 0 0 0 0 0.502066 0 0 0 0.1 0"/>
<feBlend mode="normal" in2="BackgroundImageFix" result="effect1_dropShadow"/>
<feBlend mode="normal" in="SourceGraphic" in2="effect1_dropShadow" result="shape"/>
</filter>
</defs>
</svg>
