<svg width="141" height="141" viewBox="0 0 141 141" fill="none" xmlns="http://www.w3.org/2000/svg">
<g filter="url(#filter0_d)">
<rect x="30.7581" y="26.3999" width="80" height="80" rx="40" fill="white"/>
<path d="M69.0581 49.2L61.6181 61.36C60.7981 62.68 61.7581 64.4 63.3181 64.4H78.1781C79.7381 64.4 80.6981 62.68 79.8781 61.36L72.4581 49.2C71.6781 47.92 69.8381 47.92 69.0581 49.2Z" fill="#F86296"/>
<path d="M81.7581 86.3999C86.7287 86.3999 90.7581 82.3705 90.7581 77.3999C90.7581 72.4293 86.7287 68.3999 81.7581 68.3999C76.7876 68.3999 72.7581 72.4293 72.7581 77.3999C72.7581 82.3705 76.7876 86.3999 81.7581 86.3999Z" fill="#F86296"/>
<path d="M54.7581 85.3999H66.7581C67.8581 85.3999 68.7581 84.4999 68.7581 83.3999V71.3999C68.7581 70.2999 67.8581 69.3999 66.7581 69.3999H54.7581C53.6581 69.3999 52.7581 70.2999 52.7581 71.3999V83.3999C52.7581 84.4999 53.6581 85.3999 54.7581 85.3999Z" fill="#F86296"/>
</g>
<defs>
<filter id="filter0_d" x="0.758118" y="0.399902" width="140" height="140" filterUnits="userSpaceOnUse" color-interpolation-filters="sRGB">
<feFlood flood-opacity="0" result="BackgroundImageFix"/>
<feColorMatrix in="SourceAlpha" type="matrix" values="0 0 0 0 0 0 0 0 0 0 0 0 0 0 0 0 0 0 127 0" result="hardAlpha"/>
<feMorphology radius="10" operator="dilate" in="SourceAlpha" result="effect1_dropShadow"/>
<feOffset dy="4"/>
<feGaussianBlur stdDeviation="10"/>
<feComposite in2="hardAlpha" operator="out"/>
<feColorMatrix type="matrix" values="0 0 0 0 0.504167 0 0 0 0 0.502066 0 0 0 0 0.502066 0 0 0 0.1 0"/>
<feBlend mode="normal" in2="BackgroundImageFix" result="effect1_dropShadow"/>
<feBlend mode="normal" in="SourceGraphic" in2="effect1_dropShadow" result="shape"/>
</filter>
</defs>
</svg>
