<svg width="60" height="60" viewBox="0 0 60 60" fill="none" xmlns="http://www.w3.org/2000/svg">
<circle cx="30" cy="30" r="28.75" stroke="#1A4C9D" stroke-width="2.5"/>
<circle cx="30.0001" cy="30" r="23.1811" stroke="#1A4C9D" stroke-width="2.5"/>
<path d="M32.9974 43.3936V42.0806C34.9993 41.4672 36.687 40.2581 37.7618 38.6672C38.8367 37.0764 39.2294 35.2063 38.8705 33.388C38.5116 31.5696 37.4243 29.9202 35.8009 28.7317C34.1774 27.5431 32.1226 26.8921 30 26.8936C29.4508 26.8935 28.9123 26.7622 28.4431 26.5141C27.974 26.266 27.5922 25.9107 27.3396 25.4868C27.087 25.063 26.9732 24.587 27.0106 24.1108C27.048 23.6346 27.2352 23.1765 27.5518 22.7865C27.8684 22.3965 28.3022 22.0895 28.8058 21.8992C29.3094 21.7089 29.8635 21.6424 30.4076 21.7072C30.9517 21.7719 31.4649 21.9653 31.8911 22.2663C32.3173 22.5673 32.6402 22.9643 32.8246 23.4139C33.0138 23.9161 33.3792 24.3543 33.8694 24.6668C34.3597 24.9794 34.9502 25.1508 35.5582 25.1568H35.827C36.2803 25.156 36.7271 25.0625 37.1311 24.8839C37.5352 24.7053 37.8853 24.4465 38.153 24.1286C38.4195 23.8163 38.5965 23.4533 38.6693 23.0697C38.7421 22.6861 38.7086 22.2929 38.5716 21.9228C38.1435 20.7742 37.4186 19.726 36.4524 18.8585C35.4862 17.991 34.3043 17.3273 32.9974 16.9181V15.6042C32.9974 14.9132 32.6816 14.2505 32.1195 13.762C31.5574 13.2734 30.795 12.9989 30 12.9989C29.205 12.9989 28.4426 13.2734 27.8805 13.762C27.3184 14.2505 27.0026 14.9132 27.0026 15.6042V16.9172C25.0007 17.5306 23.313 18.7397 22.2382 20.3306C21.1633 21.9214 20.7706 23.7915 21.1295 25.6098C21.4884 27.4282 22.5757 29.0776 24.1991 30.2661C25.8226 31.4547 27.8774 32.1057 30 32.1042C30.5492 32.1043 31.0877 32.2356 31.5569 32.4837C32.026 32.7318 32.4078 33.0872 32.6604 33.511C32.913 33.9348 33.0268 34.4108 32.9894 34.887C32.952 35.3632 32.7648 35.8213 32.4482 36.2113C32.1316 36.6013 31.6978 36.9083 31.1942 37.0986C30.6906 37.2889 30.1365 37.3554 29.5924 37.2906C29.0483 37.2259 28.5351 37.0325 28.1089 36.7315C27.6827 36.4305 27.3598 36.0336 27.1754 35.5839C26.9862 35.0817 26.6208 34.6435 26.1306 34.331C25.6403 34.0184 25.0498 33.847 24.4418 33.841H24.173C23.7197 33.8418 23.2729 33.9353 22.8689 34.1139C22.4648 34.2925 22.1147 34.5513 21.847 34.8692C21.5805 35.1815 21.4035 35.5445 21.3307 35.9281C21.2579 36.3117 21.2914 36.7049 21.4284 37.075C21.8565 38.2236 22.5815 39.2718 23.5476 40.1393C24.5138 41.0068 25.6957 41.6705 27.0026 42.0797V43.3936C27.0026 44.0846 27.3184 44.7473 27.8805 45.2358C28.4426 45.7244 29.205 45.9989 30 45.9989C30.795 45.9989 31.5574 45.7244 32.1195 45.2358C32.6816 44.7473 32.9974 44.0846 32.9974 43.3936ZM29.0009 43.3936V41.4397C29.0009 41.2474 28.9276 41.0606 28.7923 40.9085C28.6571 40.7563 28.4676 40.6475 28.2535 40.5991C27.1089 40.3358 26.0586 39.827 25.1988 39.1193C24.3391 38.4117 23.6975 37.5278 23.3327 36.5487C23.2927 36.4386 23.2834 36.3218 23.3056 36.2079C23.3278 36.094 23.381 35.9864 23.4606 35.894C23.5419 35.7959 23.6489 35.716 23.7728 35.661C23.8967 35.6061 24.0339 35.5775 24.173 35.5779H24.4418C24.6364 35.5871 24.8229 35.6487 24.9755 35.7542C25.128 35.8597 25.239 36.0038 25.293 36.1666C25.7125 37.1726 26.5416 38.01 27.6234 38.5205C28.7053 39.031 29.9649 39.1791 31.164 38.9369C32.0643 38.7554 32.888 38.3581 33.5414 37.7901C34.1949 37.2222 34.652 36.5062 34.8608 35.7237C35.0345 35.0815 35.0387 34.4133 34.8729 33.7695C34.7071 33.1256 34.3758 32.5227 33.9036 32.006C33.4375 31.4945 32.8441 31.0814 32.168 30.7976C31.492 30.5138 30.7508 30.3667 30 30.3673C28.295 30.3704 26.6473 29.8321 25.3669 28.8535C24.0865 27.8749 23.2614 26.5235 23.0469 25.0533C22.8323 23.5831 23.2431 22.0954 24.2019 20.87C25.1607 19.6445 26.6016 18.7657 28.2535 18.3987C28.4676 18.3503 28.6571 18.2415 28.7923 18.0893C28.9276 17.9372 29.0009 17.7504 29.0009 17.5581V15.6042C29.0009 15.3738 29.1061 15.153 29.2935 14.9901C29.4809 14.8272 29.735 14.7357 30 14.7357C30.265 14.7357 30.5191 14.8272 30.7065 14.9901C30.8939 15.153 30.9991 15.3738 30.9991 15.6042V17.5581C30.9991 17.7504 31.0724 17.9372 31.2077 18.0893C31.3429 18.2415 31.5324 18.3503 31.7465 18.3987C32.8911 18.662 33.9414 19.1708 34.8012 19.8785C35.6609 20.5861 36.3025 21.47 36.6673 22.4491C36.7073 22.5592 36.7166 22.676 36.6944 22.7899C36.6722 22.9038 36.619 23.0114 36.5394 23.1038C36.4581 23.202 36.3511 23.2818 36.2272 23.3368C36.1033 23.3917 35.9661 23.4203 35.827 23.42H35.5582C35.3636 23.4107 35.1771 23.3491 35.0245 23.2436C34.872 23.1381 34.761 22.994 34.707 22.8312C34.2873 21.8253 33.4582 20.988 32.3764 20.4775C31.2946 19.9671 30.035 19.8189 28.836 20.0609C27.9358 20.2425 27.1122 20.6398 26.4587 21.2078C25.8052 21.7757 25.3481 22.4916 25.1392 23.2741C24.9655 23.9163 24.9614 24.5845 25.1272 25.2283C25.293 25.8722 25.6243 26.4751 26.0964 26.9918C26.5625 27.5033 27.1559 27.9164 27.832 28.2002C28.508 28.484 29.2492 28.6311 30 28.6305C31.705 28.6274 33.3527 29.1657 34.6331 30.1443C35.9135 31.1229 36.7386 32.4743 36.9531 33.9445C37.1677 35.4147 36.7569 36.9024 35.7981 38.1278C34.8393 39.3533 33.3984 40.2321 31.7465 40.5991C31.5324 40.6475 31.3429 40.7563 31.2077 40.9085C31.0724 41.0606 30.9991 41.2474 30.9991 41.4397V43.3936C30.9991 43.624 30.8939 43.8448 30.7065 44.0077C30.5191 44.1706 30.265 44.2621 30 44.2621C29.735 44.2621 29.4809 44.1706 29.2935 44.0077C29.1061 43.8448 29.0009 43.624 29.0009 43.3936Z" fill="#1A4C9D" stroke="#1A4C9D" stroke-width="0.3"/>
</svg>
