<svg width="60" height="60" viewBox="0 0 60 60" fill="none" xmlns="http://www.w3.org/2000/svg">
<circle cx="30" cy="30" r="28.75" stroke="#1A4C9D" stroke-width="2.5"/>
<circle cx="30" cy="30" r="23.1811" stroke="#1A4C9D" stroke-width="2.5"/>
<path d="M38.987 34.8678C38.987 39.8312 34.9634 43.8548 30 43.8548C25.0366 43.8548 21.013 39.8312 21.013 34.8678C21.013 33.8751 21.4281 32.2836 22.194 30.2738C22.9429 28.3088 23.969 26.0887 25.0664 23.8993C26.8635 20.3141 28.8237 16.8672 30 14.8538C31.1763 16.8672 33.1365 20.3141 34.9337 23.8993C36.0311 26.0887 37.0572 28.3088 37.806 30.2738C38.5719 32.2836 38.987 33.8751 38.987 34.8678Z" stroke="#1A4C9D" stroke-width="2.5" stroke-linejoin="round"/>
<path d="M26.0445 33.3075C25.6987 35.218 25.3924 38.405 29.5417 39.6498" stroke="#1A4C9D" stroke-width="2.5" stroke-linecap="round" stroke-linejoin="round"/>
</svg>
