<svg width="200" height="32" viewBox="0 0 200 32" fill="none" xmlns="http://www.w3.org/2000/svg">
<g clip-path="url(#clip0)">
<path fill-rule="evenodd" clip-rule="evenodd" d="M35.8389 11.2154V26.2699C35.8389 27.2412 36.1763 28.0775 36.8512 28.779C37.526 29.4535 38.3493 29.7907 39.321 29.7907C40.2927 29.7907 41.116 29.4535 41.7908 28.779C42.4656 28.0775 42.803 27.2412 42.803 26.2699V7.69455C42.803 6.1837 42.2497 4.8752 41.143 3.76904C40.0363 2.63591 38.7271 2.06934 37.2156 2.06934C36.0279 2.06934 34.9482 2.42007 33.9765 3.12154C33.0047 3.79602 32.3164 4.68634 31.9115 5.7925L27.4578 17.7309L23.0445 5.7925C22.6666 4.68634 21.9918 3.79602 21.02 3.12154C20.0483 2.42007 18.9686 2.06934 17.7809 2.06934C16.2424 2.06934 14.9197 2.62242 13.813 3.72857C12.7064 4.83473 12.153 6.15672 12.153 7.69455V26.2699C12.153 27.2412 12.4904 28.0775 13.1652 28.779C13.84 29.4535 14.6633 29.7907 15.635 29.7907C16.6068 29.7907 17.43 29.4535 18.1049 28.779C18.7797 28.0775 19.1171 27.2412 19.1171 26.2699V11.2154L25.5953 28.4552C25.9192 29.3456 26.54 29.7907 27.4578 29.7907C28.4025 29.7907 29.0368 29.3456 29.3607 28.4552L35.8389 11.2154ZM72.1555 11.2154V26.2699C72.1555 27.2412 72.4929 28.0775 73.1677 28.779C73.8425 29.4535 74.6658 29.7907 75.6375 29.7907C76.6093 29.7907 77.4325 29.4535 78.1073 28.779C78.7822 28.0775 79.1196 27.2412 79.1196 26.2699V7.69455C79.1196 6.1837 78.5662 4.8752 77.4595 3.76904C76.3528 2.63591 75.0437 2.06934 73.5321 2.06934C72.3444 2.06934 71.2647 2.42007 70.293 3.12154C69.3213 3.79602 68.633 4.68634 68.2281 5.7925L63.7743 17.7309L59.361 5.7925C58.9831 4.68634 58.3083 3.79602 57.3366 3.12154C56.3649 2.42007 55.2852 2.06934 54.0975 2.06934C52.5589 2.06934 51.2363 2.62242 50.1296 3.72857C49.0229 4.83473 48.4695 6.15672 48.4695 7.69455V26.2699C48.4695 27.2412 48.807 28.0775 49.4818 28.779C50.1566 29.4535 50.9799 29.7907 51.9516 29.7907C52.9233 29.7907 53.7466 29.4535 54.4214 28.779C55.0962 28.0775 55.4336 27.2412 55.4336 26.2699V11.2154L61.9118 28.4552C62.2357 29.3456 62.8566 29.7907 63.7743 29.7907C64.719 29.7907 65.3534 29.3456 65.6773 28.4552L72.1555 11.2154ZM6.7084 8.6384C5.71575 10.3577 3.51727 10.9468 1.79795 9.95415C0.0786318 8.9615 -0.51045 6.76302 0.482198 5.0437C1.47485 3.32438 3.67333 2.7353 5.39264 3.72795C7.11196 4.7206 7.70104 6.91908 6.7084 8.6384ZM0.147649 15.7455C0.147649 13.7647 1.75337 12.159 3.73412 12.159C5.71487 12.159 7.32059 13.7647 7.32059 15.7455V26.1944C7.32059 28.1752 5.71487 29.7809 3.73412 29.7809C1.75337 29.7809 0.147649 28.1752 0.147649 26.1944V15.7455Z" fill="#EA168D"/>
<path d="M112.669 17.4788V23.2727C112.669 24.5692 112.236 25.5956 111.372 26.3519C108.563 28.7829 105.281 29.9984 101.526 29.9984C97.5828 30.0524 94.2199 28.7424 91.4377 26.0683C88.6556 23.3942 87.2915 20.0314 87.3455 15.9797C87.2915 11.9281 88.6556 8.57876 91.4377 5.93169C94.2199 3.25761 97.5828 1.94758 101.526 2.0016C105.227 2.0016 108.293 3.2171 110.724 5.64808C111.156 6.08025 111.372 6.60696 111.372 7.22821C111.372 7.82245 111.156 8.33566 110.724 8.76783C110.319 9.20001 109.805 9.41609 109.184 9.41609C108.563 9.41609 108.036 9.20001 107.604 8.76783C105.902 7.06615 103.876 6.21531 101.526 6.21531C98.8523 6.21531 96.6239 7.14718 94.8411 9.01093C93.0854 10.8477 92.2076 13.1706 92.2076 15.9797C92.2076 18.7619 93.0989 21.0983 94.8817 22.9891C96.6644 24.8528 98.8793 25.7847 101.526 25.7847C104.011 25.7847 106.145 24.9744 107.928 23.3537V19.14H101.729C101.162 19.14 100.662 18.9374 100.23 18.5323C99.8247 18.1271 99.6221 17.6274 99.6221 17.0332C99.6221 16.4659 99.8247 15.9797 100.23 15.5746C100.662 15.1694 101.162 14.9668 101.729 14.9668H110.157C111.831 14.9668 112.669 15.8042 112.669 17.4788Z" fill="black"/>
<path d="M117.482 27.5674V4.35155C117.482 3.75731 117.684 3.25761 118.09 2.85245C118.522 2.42027 119.035 2.20419 119.629 2.20419C120.196 2.20419 120.683 2.42027 121.088 2.85245C121.52 3.25761 121.736 3.75731 121.736 4.35155V27.5674C121.736 28.1617 121.52 28.6749 121.088 29.107C120.683 29.5122 120.196 29.7148 119.629 29.7148C119.035 29.7148 118.522 29.5122 118.09 29.107C117.684 28.6749 117.482 28.1617 117.482 27.5674Z" fill="black"/>
<path d="M126.039 19.6667C126.039 16.7766 126.971 14.3456 128.835 12.3738C130.699 10.402 133.116 9.41609 136.088 9.41609C139.086 9.41609 141.517 10.402 143.381 12.3738C145.244 14.3456 146.176 16.7766 146.176 19.6667C146.176 22.5839 145.244 25.0284 143.381 27.0002C141.517 28.972 139.086 29.9579 136.088 29.9579C133.116 29.9579 130.699 28.972 128.835 27.0002C126.971 25.0284 126.039 22.5839 126.039 19.6667ZM141.76 19.6667C141.76 17.884 141.247 16.3579 140.22 15.0884C139.194 13.8189 137.816 13.1841 136.088 13.1841C134.359 13.1841 132.981 13.8189 131.955 15.0884C130.955 16.3309 130.456 17.857 130.456 19.6667C130.456 21.5305 130.955 23.0836 131.955 24.3261C132.954 25.5686 134.332 26.1899 136.088 26.1899C137.843 26.1899 139.221 25.5686 140.22 24.3261C141.247 23.0566 141.76 21.5035 141.76 19.6667Z" fill="black"/>
<path d="M169.686 19.7072C169.686 22.8405 168.876 25.339 167.255 27.2028C165.661 29.0395 163.581 29.9579 161.015 29.9579C158.422 29.9579 156.329 28.9045 154.735 26.7976V27.5674C154.735 28.1617 154.519 28.6749 154.087 29.107C153.682 29.5122 153.196 29.7148 152.628 29.7148C152.034 29.7148 151.521 29.5122 151.089 29.107C150.683 28.6749 150.481 28.1617 150.481 27.5674V4.35155C150.481 3.75731 150.683 3.25761 151.089 2.85245C151.521 2.42027 152.034 2.20419 152.628 2.20419C153.196 2.20419 153.682 2.42027 154.087 2.85245C154.519 3.25761 154.735 3.75731 154.735 4.35155V12.6169C156.275 10.483 158.368 9.41609 161.015 9.41609C163.554 9.41609 165.634 10.3615 167.255 12.2522C168.876 14.116 169.686 16.601 169.686 19.7072ZM163.77 24.4071C164.797 23.2187 165.31 21.652 165.31 19.7072C165.31 17.7625 164.797 16.1958 163.77 15.0073C162.771 13.7919 161.434 13.1841 159.759 13.1841C158.787 13.1841 157.828 13.4407 156.883 13.9539C155.937 14.4671 155.221 15.1019 154.735 15.8582V23.5968C155.194 24.3261 155.897 24.9474 156.842 25.4606C157.814 25.9468 158.787 26.1899 159.759 26.1899C161.434 26.1899 162.771 25.5956 163.77 24.4071Z" fill="black"/>
<path d="M190.23 16.5065V27.5674C190.23 28.1617 190.014 28.6749 189.582 29.107C189.177 29.5122 188.677 29.7148 188.083 29.7148C187.515 29.7148 187.016 29.5122 186.584 29.107C186.178 28.6749 185.976 28.1617 185.976 27.5674V27.3648C184.463 29.0935 182.356 29.9579 179.655 29.9579C177.845 29.9579 176.252 29.3771 174.874 28.2157C173.524 27.0272 172.848 25.4471 172.848 23.4753C172.848 21.4494 173.51 19.8828 174.834 18.7754C176.184 17.6679 177.791 17.1142 179.655 17.1142C182.41 17.1142 184.517 17.9515 185.976 19.6262V16.709C185.976 15.5746 185.557 14.6832 184.72 14.035C183.882 13.3867 182.775 13.0626 181.397 13.0626C179.777 13.0626 178.251 13.5488 176.819 14.5212C176.549 14.7102 176.225 14.8048 175.847 14.8048C175.387 14.8048 174.982 14.6427 174.631 14.3186C174.307 13.9674 174.145 13.5623 174.145 13.1031C174.145 12.4818 174.388 12.0226 174.874 11.7255C176.954 10.1859 179.358 9.41609 182.086 9.41609C184.598 9.41609 186.584 10.0103 188.042 11.1988C189.501 12.3603 190.23 14.1295 190.23 16.5065ZM185.976 25.0149V22.0572C184.976 20.7066 183.423 20.0314 181.316 20.0314C180.101 20.0314 179.101 20.3555 178.318 21.0038C177.535 21.652 177.143 22.5029 177.143 23.5563C177.143 24.6097 177.535 25.4606 178.318 26.1088C179.101 26.7301 180.101 27.0407 181.316 27.0407C183.423 27.0407 184.976 26.3654 185.976 25.0149Z" fill="black"/>
<path d="M195.746 27.5674V4.35155C195.746 3.75731 195.948 3.25761 196.354 2.85245C196.786 2.42027 197.299 2.20419 197.893 2.20419C198.46 2.20419 198.947 2.42027 199.352 2.85245C199.784 3.25761 200 3.75731 200 4.35155V27.5674C200 28.1617 199.784 28.6749 199.352 29.107C198.947 29.5122 198.46 29.7148 197.893 29.7148C197.299 29.7148 196.786 29.5122 196.354 29.107C195.948 28.6749 195.746 28.1617 195.746 27.5674Z" fill="black"/>
</g>
<defs>
<clipPath id="clip0">
<rect width="200" height="32" fill="white"/>
</clipPath>
</defs>
</svg>
