<svg width="828" height="831" viewBox="0 0 828 831" fill="none" xmlns="http://www.w3.org/2000/svg">
<circle cx="412.623" cy="418.144" r="237.641" stroke="#C8C7C7" stroke-width="0.5"/>
<circle cx="412.623" cy="418.144" r="322.54" stroke="#C8C7C7" stroke-width="0.5"/>
<circle cx="412.623" cy="418.144" r="411.793" stroke="#C8C7C7" stroke-width="0.5"/>
<circle cx="189.732" cy="333.144" r="8" fill="#3D3F9C"/>
<circle cx="232.717" cy="570.035" r="8" fill="url(#paint0_linear)"/>
<circle cx="514.355" cy="723.667" r="6" fill="#C8C7C7"/>
<circle cx="821.665" cy="465.589" r="6" fill="#C8C7C7"/>
<circle cx="546" cy="124.914" r="6" fill="#C8C7C7"/>
<circle cx="398.492" cy="6.10156" r="6" fill="#C8C7C7"/>
<circle cx="29" cy="568.035" r="6" fill="#C8C7C7"/>
<circle cx="630.5" cy="512.948" r="8" fill="#3D3F9C"/>
<circle cx="622.5" cy="307.144" r="8" fill="url(#paint1_linear)"/>
<g clip-path="url(#clip0)" filter="url(#filter0_d)">
<path d="M422.123 509.644C469.619 509.644 508.123 471.364 508.123 424.144C508.123 376.924 469.619 338.644 422.123 338.644C374.626 338.644 336.123 376.924 336.123 424.144C336.123 471.364 374.626 509.644 422.123 509.644Z" fill="url(#paint2_linear)"/>
<path opacity="0.3" d="M422.123 507.072C399.537 507.077 377.855 498.247 361.763 482.49C345.672 466.734 336.461 445.315 336.123 422.863C336.123 423.287 336.123 423.746 336.123 424.144C336.123 446.82 345.183 468.567 361.312 484.602C377.44 500.636 399.314 509.644 422.123 509.644C444.931 509.644 466.806 500.636 482.934 484.602C499.062 468.567 508.123 446.82 508.123 424.144C508.123 423.711 508.123 423.26 508.123 422.863C507.784 445.315 498.574 466.734 482.482 482.49C466.39 498.247 444.709 507.077 422.123 507.072Z" fill="#FDF356"/>
<path d="M422.123 341.861C444.651 341.861 466.279 350.65 482.358 366.338C498.436 382.026 507.681 403.359 508.105 425.752C508.105 425.213 508.105 424.683 508.105 424.144C507.78 401.683 498.578 380.252 482.486 364.483C466.395 348.713 444.708 339.873 422.114 339.873C399.519 339.873 377.833 348.713 361.741 364.483C345.65 380.252 336.448 401.683 336.123 424.144C336.123 424.683 336.123 425.213 336.123 425.752C336.547 403.356 345.794 382.02 361.877 366.332C377.959 350.644 399.592 341.857 422.123 341.861V341.861Z" fill="#FDF356"/>
<path style="mix-blend-mode:screen" d="M422.123 509.247C469.398 509.247 507.723 471.146 507.723 424.145C507.723 377.144 469.398 339.043 422.123 339.043C374.847 339.043 336.523 377.144 336.523 424.145C336.523 471.146 374.847 509.247 422.123 509.247Z" fill="url(#paint3_radial)"/>
<path style="mix-blend-mode:screen" opacity="0.7" d="M422.123 338.962C399.813 338.963 378.385 347.62 362.398 363.09C346.411 378.56 337.127 399.622 336.523 421.793C345.989 427.37 360.878 422.907 370.612 418.064C378.985 414.22 389.278 415.501 398.301 416.146C420.834 418.064 442.745 427.635 465.261 421.908C469.767 420.627 476.203 414.838 480.709 418.7C484.437 421.741 488.964 423.653 493.752 424.211C498.541 424.769 503.39 423.948 507.723 421.846C507.132 399.665 497.854 378.59 481.866 363.109C465.877 347.628 444.441 338.964 422.123 338.962V338.962Z" fill="url(#paint4_linear)"/>
<path d="M422.123 490.361C458.907 490.361 488.727 460.715 488.727 424.144C488.727 387.573 458.907 357.927 422.123 357.927C385.338 357.927 355.518 387.573 355.518 424.144C355.518 460.715 385.338 490.361 422.123 490.361Z" fill="url(#paint5_linear)"/>
<path d="M422.123 487.144C457.12 487.144 485.492 458.938 485.492 424.144C485.492 389.35 457.12 361.144 422.123 361.144C387.125 361.144 358.754 389.35 358.754 424.144C358.754 458.938 387.125 487.144 422.123 487.144Z" fill="#EE9B00"/>
<path d="M422.123 484.573C455.692 484.573 482.905 457.518 482.905 424.144C482.905 390.77 455.692 363.715 422.123 363.715C388.554 363.715 361.341 390.77 361.341 424.144C361.341 457.518 388.554 484.573 422.123 484.573Z" fill="url(#paint6_radial)"/>
<path opacity="0.25" d="M422.123 480.039C389.092 480.039 362.221 455.136 361.358 422.5C361.358 423.039 361.358 423.57 361.358 424.109C361.358 440.135 367.762 455.506 379.161 466.838C390.56 478.171 406.02 484.537 422.141 484.537C438.261 484.537 453.721 478.171 465.12 466.838C476.519 455.506 482.923 440.135 482.923 424.109C482.923 423.57 482.923 423.039 482.923 422.5C482.025 455.171 455.154 480.039 422.123 480.039Z" fill="#FDF356"/>
<path opacity="0.1" d="M460.132 415.82C459.826 414.868 459.256 414.021 458.487 413.376C457.718 412.732 456.781 412.317 455.785 412.179L435.856 409.343L426.967 391.394C426.524 390.498 425.837 389.742 424.984 389.214C424.131 388.686 423.146 388.406 422.141 388.406C421.135 388.406 420.151 388.686 419.297 389.214C418.444 389.742 417.757 390.498 417.314 391.394L408.389 409.343L388.461 412.179C387.466 412.322 386.531 412.739 385.763 413.383C384.994 414.026 384.422 414.872 384.112 415.822C383.802 416.772 383.766 417.79 384.009 418.76C384.251 419.73 384.762 420.613 385.483 421.308L399.892 435.28L396.487 455.005C396.312 455.989 396.42 457.002 396.799 457.928C397.178 458.853 397.813 459.654 398.629 460.236C399.444 460.819 400.405 461.166 401.406 461.239C402.407 461.313 403.409 461.109 404.301 460.652L422.078 451.337L439.856 460.643C440.627 461.053 441.488 461.269 442.363 461.27C443.148 461.269 443.924 461.098 444.637 460.769C445.349 460.44 445.981 459.961 446.489 459.365C446.996 458.769 447.367 458.07 447.575 457.317C447.784 456.564 447.825 455.775 447.696 455.005L444.292 435.28L458.789 421.308C459.511 420.612 460.019 419.728 460.257 418.757C460.494 417.786 460.451 416.768 460.132 415.82V415.82Z" fill="#FDF356"/>
<path style="mix-blend-mode:multiply" opacity="0.6" d="M458.896 415.573C458.664 414.85 458.232 414.207 457.648 413.717C457.065 413.228 456.354 412.912 455.598 412.807L435.003 409.829L425.794 391.271C425.457 390.588 424.935 390.013 424.286 389.611C423.637 389.209 422.887 388.996 422.123 388.996C421.358 388.996 420.609 389.209 419.96 389.611C419.311 390.013 418.788 390.588 418.452 391.271L409.243 409.829L388.647 412.807C387.893 412.919 387.186 413.237 386.604 413.726C386.022 414.216 385.589 414.857 385.353 415.578C385.118 416.299 385.089 417.07 385.271 417.806C385.452 418.542 385.837 419.213 386.381 419.744L399.989 433.539L396.434 453.935C396.303 454.719 396.383 455.523 396.668 456.265C396.952 457.007 397.43 457.661 398.052 458.159C398.865 458.717 399.801 459.069 400.782 459.186C401.762 459.303 402.756 459.181 403.678 458.831L422.096 449.199L440.541 458.831C441.321 459.205 442.181 459.384 443.047 459.354C443.913 459.323 444.758 459.083 445.509 458.654C446.781 457.771 448.034 455.438 447.776 453.9L444.221 433.504L457.901 419.744C458.444 419.212 458.825 418.538 459.001 417.801C459.177 417.063 459.141 416.291 458.896 415.573V415.573Z" fill="url(#paint7_linear)"/>
<g style="mix-blend-mode:multiply" opacity="0.15">
<path d="M458.896 411.719C458.664 410.995 458.231 410.351 457.648 409.861C457.065 409.37 456.355 409.052 455.598 408.944L435.003 405.975L425.794 387.416C425.455 386.737 424.931 386.165 424.283 385.765C423.634 385.365 422.886 385.153 422.123 385.153C421.36 385.153 420.611 385.365 419.963 385.765C419.314 386.165 418.791 386.737 418.452 387.416L409.243 405.975L388.647 408.944C387.892 409.054 387.182 409.372 386.598 409.863C386.015 410.353 385.581 410.995 385.345 411.717C385.109 412.44 385.081 413.213 385.264 413.95C385.447 414.688 385.834 415.36 386.381 415.89L401.287 430.33L397.732 450.717C397.597 451.468 397.678 452.241 397.965 452.947C398.251 453.654 398.733 454.266 399.354 454.714C399.974 455.161 400.709 455.426 401.474 455.477C402.239 455.528 403.003 455.364 403.678 455.003L422.096 445.38L440.514 455.003C441.189 455.358 441.951 455.517 442.713 455.463C443.475 455.409 444.207 455.144 444.825 454.698C445.443 454.252 445.923 453.642 446.21 452.939C446.498 452.235 446.581 451.466 446.452 450.717L442.896 430.33L457.901 415.89C458.443 415.357 458.823 414.684 458.999 413.946C459.175 413.209 459.14 412.437 458.896 411.719V411.719Z" fill="#EE9B00"/>
</g>
<path d="M424.923 389.131L434.354 408.14L455.456 411.189C456.035 411.27 456.579 411.511 457.027 411.884C457.475 412.258 457.808 412.749 457.989 413.302C458.169 413.854 458.19 414.446 458.049 415.01C457.908 415.574 457.61 416.087 457.189 416.491L441.901 431.276L445.509 452.167C445.609 452.738 445.545 453.326 445.325 453.863C445.106 454.4 444.739 454.865 444.267 455.205C443.795 455.546 443.237 455.748 442.655 455.789C442.073 455.83 441.492 455.708 440.976 455.437L422.123 445.574L403.252 455.437C402.736 455.708 402.155 455.83 401.573 455.789C400.991 455.748 400.433 455.546 399.961 455.205C399.489 454.865 399.122 454.4 398.903 453.863C398.683 453.326 398.619 452.738 398.718 452.167L402.327 431.276L387.056 416.482C386.635 416.075 386.337 415.559 386.198 414.992C386.059 414.424 386.084 413.83 386.27 413.276C386.455 412.722 386.794 412.231 387.248 411.861C387.702 411.49 388.251 411.254 388.834 411.18L409.901 408.14L419.323 389.131C419.58 388.611 419.979 388.173 420.474 387.866C420.968 387.56 421.54 387.397 422.123 387.397C422.706 387.397 423.277 387.56 423.772 387.866C424.267 388.173 424.666 388.611 424.923 389.131V389.131Z" fill="url(#paint8_linear)"/>
<path opacity="0.3" d="M402.043 432.928L398.718 452.167C398.639 452.642 398.669 453.128 398.807 453.59L402.363 433.202L402.043 432.928Z" fill="#FDF356"/>
<path d="M388.789 413.115L411.181 410.066L420.621 391.057C421.758 388.751 422.487 388.751 423.625 391.057L433.065 410.066L455.456 413.115C456.034 413.194 456.577 413.434 457.022 413.808C457.468 414.182 457.797 414.674 457.972 415.227C458.114 414.797 458.16 414.341 458.106 413.892C458.052 413.442 457.9 413.01 457.66 412.625C457.421 412.24 457.099 411.912 456.718 411.664C456.338 411.416 455.907 411.254 455.456 411.189L434.354 408.14L424.923 389.131C424.666 388.611 424.267 388.173 423.772 387.866C423.277 387.56 422.706 387.397 422.123 387.397C421.54 387.397 420.968 387.56 420.474 387.866C419.979 388.173 419.58 388.611 419.323 389.131L409.901 408.14L388.789 411.189C388.339 411.254 387.908 411.416 387.527 411.664C387.146 411.912 386.825 412.24 386.585 412.625C386.345 413.01 386.193 413.442 386.14 413.892C386.086 414.341 386.132 414.797 386.274 415.227C386.449 414.674 386.778 414.182 387.223 413.808C387.669 413.434 388.212 413.194 388.789 413.115V413.115Z" fill="#FDF356"/>
<path opacity="0.3" d="M442.203 432.928L441.901 433.202L445.456 453.59C445.594 453.128 445.625 452.642 445.545 452.167L442.203 432.928Z" fill="#FDF356"/>
<path style="mix-blend-mode:screen" d="M424.923 389.131L434.354 408.14L455.456 411.189C456.035 411.27 456.579 411.511 457.027 411.884C457.475 412.258 457.808 412.749 457.989 413.302C458.169 413.854 458.19 414.446 458.049 415.01C457.908 415.574 457.61 416.087 457.189 416.491L441.901 431.276L445.509 452.167C445.609 452.738 445.545 453.326 445.325 453.863C445.106 454.4 444.739 454.865 444.267 455.205C443.795 455.546 443.237 455.748 442.655 455.789C442.073 455.83 441.492 455.708 440.976 455.437L422.123 445.574L403.252 455.437C402.736 455.708 402.155 455.83 401.573 455.789C400.991 455.748 400.433 455.546 399.961 455.205C399.489 454.865 399.122 454.4 398.903 453.863C398.683 453.326 398.619 452.738 398.718 452.167L402.327 431.276L387.056 416.482C386.635 416.075 386.337 415.559 386.198 414.992C386.059 414.424 386.084 413.83 386.27 413.276C386.455 412.722 386.794 412.231 387.248 411.861C387.702 411.49 388.251 411.254 388.834 411.18L409.901 408.14L419.323 389.131C419.58 388.611 419.979 388.173 420.474 387.866C420.968 387.56 421.54 387.397 422.123 387.397C422.706 387.397 423.277 387.56 423.772 387.866C424.267 388.173 424.666 388.611 424.923 389.131V389.131Z" fill="url(#paint9_radial)"/>
<path style="mix-blend-mode:screen" d="M455.456 411.189L434.354 408.14L424.923 389.131C424.666 388.611 424.267 388.173 423.772 387.866C423.277 387.56 422.706 387.397 422.123 387.397C421.54 387.397 420.968 387.56 420.474 387.866C419.979 388.173 419.58 388.611 419.323 389.131L409.901 408.14L388.789 411.189C388.294 411.261 387.823 411.452 387.419 411.746C387.015 412.041 386.689 412.429 386.469 412.877C389.136 416.199 390.167 416.791 394.532 419.84C407.865 427.343 441.305 426.026 450.576 418.559C454.025 415.766 455.261 415.395 457.349 412.249C456.87 411.677 456.197 411.3 455.456 411.189Z" fill="url(#paint10_linear)"/>
</g>
<defs>
<filter id="filter0_d" x="310.123" y="316.644" width="224" height="223" filterUnits="userSpaceOnUse" color-interpolation-filters="sRGB">
<feFlood flood-opacity="0" result="BackgroundImageFix"/>
<feColorMatrix in="SourceAlpha" type="matrix" values="0 0 0 0 0 0 0 0 0 0 0 0 0 0 0 0 0 0 127 0" result="hardAlpha"/>
<feMorphology radius="6" operator="dilate" in="SourceAlpha" result="effect1_dropShadow"/>
<feOffset dy="4"/>
<feGaussianBlur stdDeviation="10"/>
<feComposite in2="hardAlpha" operator="out"/>
<feColorMatrix type="matrix" values="0 0 0 0 0.504167 0 0 0 0 0.502066 0 0 0 0 0.502066 0 0 0 0.1 0"/>
<feBlend mode="normal" in2="BackgroundImageFix" result="effect1_dropShadow"/>
<feBlend mode="normal" in="SourceGraphic" in2="effect1_dropShadow" result="shape"/>
</filter>
<linearGradient id="paint0_linear" x1="224.72" y1="570.036" x2="240.745" y2="570.036" gradientUnits="userSpaceOnUse">
<stop stop-color="#FF86B3"/>
<stop offset="1" stop-color="#E02A6D"/>
</linearGradient>
<linearGradient id="paint1_linear" x1="614.503" y1="307.146" x2="630.527" y2="307.146" gradientUnits="userSpaceOnUse">
<stop stop-color="#FF86B3"/>
<stop offset="1" stop-color="#E02A6D"/>
</linearGradient>
<linearGradient id="paint2_linear" x1="422.123" y1="338.644" x2="422.123" y2="509.644" gradientUnits="userSpaceOnUse">
<stop stop-color="#F8DF00"/>
<stop offset="0.14" stop-color="#FCE900"/>
<stop offset="0.3" stop-color="#FFEF00"/>
<stop offset="1" stop-color="#F3A700"/>
</linearGradient>
<radialGradient id="paint3_radial" cx="0" cy="0" r="1" gradientUnits="userSpaceOnUse" gradientTransform="translate(421.261 326.883) scale(68.4889 68.0907)">
<stop stop-color="#FFF77D"/>
<stop offset="1"/>
</radialGradient>
<linearGradient id="paint4_linear" x1="422.123" y1="495.407" x2="422.123" y2="371.333" gradientUnits="userSpaceOnUse">
<stop stop-color="#FFFAB0"/>
<stop offset="1"/>
</linearGradient>
<linearGradient id="paint5_linear" x1="422.123" y1="490.361" x2="422.123" y2="327.659" gradientUnits="userSpaceOnUse">
<stop stop-color="#FFE100"/>
<stop offset="0.17" stop-color="#FDD600"/>
<stop offset="0.7" stop-color="#F7B900"/>
<stop offset="1" stop-color="#F5AE00"/>
</linearGradient>
<radialGradient id="paint6_radial" cx="0" cy="0" r="1" gradientUnits="userSpaceOnUse" gradientTransform="translate(422.772 372.075) scale(122.213 121.503)">
<stop offset="0.31" stop-color="#FFDF00"/>
<stop offset="1" stop-color="#F3A700"/>
</radialGradient>
<linearGradient id="paint7_linear" x1="422.123" y1="459.397" x2="422.123" y2="389.008" gradientUnits="userSpaceOnUse">
<stop stop-color="#EE9B00"/>
<stop offset="0.61" stop-color="#F3B500"/>
<stop offset="1" stop-color="#F5C000"/>
</linearGradient>
<linearGradient id="paint8_linear" x1="422.123" y1="387.399" x2="422.123" y2="506.843" gradientUnits="userSpaceOnUse">
<stop stop-color="#FFEF00"/>
<stop offset="0.73" stop-color="#FAC800"/>
<stop offset="1" stop-color="#F7CF00"/>
</linearGradient>
<radialGradient id="paint9_radial" cx="0" cy="0" r="1" gradientUnits="userSpaceOnUse" gradientTransform="translate(421.474 373.277) scale(60.7822 60.4288)">
<stop stop-color="#FFF66E"/>
<stop offset="1"/>
</radialGradient>
<linearGradient id="paint10_linear" x1="7227.1" y1="5322.49" x2="7227.1" y2="3521.88" gradientUnits="userSpaceOnUse">
<stop stop-color="#FFFAB0"/>
<stop offset="1"/>
</linearGradient>
<clipPath id="clip0">
<rect width="172" height="171" fill="white" transform="translate(336.123 338.644)"/>
</clipPath>
</defs>
</svg>
