<svg width="33" height="32" viewBox="0 0 33 32" fill="none" xmlns="http://www.w3.org/2000/svg">
<path fill-rule="evenodd" clip-rule="evenodd" d="M16.5 32C7.66345 32 0.5 24.8365 0.5 16C0.5 7.16344 7.66345 0 16.5 0C25.3365 0 32.5 7.16344 32.5 16C32.5 24.8365 25.3365 32 16.5 32ZM10.2 11.7C10.3 11.8 10.4 12 10.4 12.2V19.2C10.5 19.5 10.4 19.7 10.2 19.9L8.5 21.9V22.2H13.2V21.9L11.5 19.9C11.4 19.7 11.3 19.5 11.3 19.2V13.1L15.5 22.2H15.9L19.5 13.1V20.4C19.5 20.6 19.5 20.7 19.4 20.8L18.1 22.1V22.4H24.4V22.1L23.2 20.9C23.1 20.8 23.1 20.6 23.1 20.5V11.5C23 11.3 23.1 11.2 23.2 11.1L24.5 9.90001V9.60001H20.1L16.9 17.5L13.3 9.60001H8.70001V9.90001L10.2 11.7Z" fill="#9298AB"/>
</svg>
