<svg width="345" height="997" viewBox="0 0 345 997" fill="none" xmlns="http://www.w3.org/2000/svg">
<rect width="345" height="997" fill="url(#paint0_linear)"/>
<g clip-path="url(#clip0)">
<path d="M122.751 913.017C120.501 913.017 118.252 912.586 116.694 911.637L37.0091 865.742C35.3652 864.793 34.5 863.585 34.5 862.119C34.5 860.393 35.7978 858.754 37.9608 857.46L189.891 770.07C194.044 767.654 200.273 767.395 203.907 769.466L283.592 815.361C285.15 816.31 286.101 817.518 286.101 818.984C286.101 820.71 284.803 822.349 282.64 823.643L130.624 911.033C128.375 912.327 125.433 913.017 122.751 913.017ZM116.781 911.292C120.242 913.276 126.385 913.017 130.451 910.688L282.381 823.211C284.457 822.004 285.669 820.451 285.669 818.898C285.669 817.604 284.89 816.482 283.333 815.62L203.647 769.725C200.187 767.74 194.044 767.999 189.977 770.329L38.1339 857.805C36.0574 859.013 34.8461 860.566 34.8461 862.119C34.8461 863.413 35.6248 864.534 37.1821 865.397L116.781 911.292Z" fill="#42E8E0"/>
<path d="M285.842 797.762L274.421 799.746L203.82 759.114C200.273 757.043 194.13 757.302 189.977 759.717L54.9189 837.359L34.6731 840.81V847.97C34.6731 849.265 35.4518 850.559 37.0957 851.421L116.694 897.316C120.242 899.387 126.385 899.128 130.538 896.712L282.467 809.236C284.63 807.942 285.842 806.389 285.842 804.836V797.762Z" fill="url(#paint1_linear)"/>
<path d="M116.695 890.156L37.0965 844.261C33.5491 842.19 33.9817 838.653 38.0482 836.324L189.978 748.848C194.044 746.518 200.274 746.259 203.821 748.244L283.506 794.139C287.054 796.209 286.621 799.746 282.555 802.075L130.538 889.552C126.472 891.968 120.243 892.226 116.695 890.156Z" fill="#24126A"/>
<path d="M282.467 802.162L130.538 889.552C126.471 891.881 120.242 892.14 116.694 890.156L37.0957 844.261C35.7113 843.485 34.9326 842.363 34.7596 841.242C34.5 842.794 35.2787 844.175 37.0957 845.21L116.694 891.105C120.242 893.175 126.385 892.917 130.538 890.501L282.467 803.024C284.89 801.644 286.015 799.746 285.842 798.107C285.582 799.487 284.457 800.954 282.467 802.162Z" fill="white"/>
<path opacity="0.51" d="M116.867 888.344L40.0373 844.175C36.5764 842.19 37.009 838.74 40.989 836.497L190.064 750.659C194.044 748.416 200.013 748.157 203.474 750.142L280.304 794.398C283.765 796.382 283.333 799.832 279.353 802.075L130.278 887.913C126.298 890.07 120.328 890.329 116.867 888.344Z" fill="#453C9E"/>
<path opacity="0.8" d="M122.664 887.999C120.415 887.999 118.338 887.568 116.694 886.619L39.9506 842.363C38.3933 841.5 37.5281 840.206 37.5281 838.826C37.5281 837.187 38.7394 835.462 40.9024 834.254L189.977 748.416C193.957 746.087 200.1 745.828 203.561 747.899L280.391 792.155C281.948 793.017 282.813 794.311 282.813 795.692C282.813 797.331 281.602 799.056 279.439 800.264L130.364 886.101C128.201 887.309 125.346 887.999 122.664 887.999ZM116.954 886.188C120.328 888.086 126.211 887.913 130.105 885.67L279.179 799.832C281.169 798.711 282.294 797.158 282.294 795.692C282.294 794.484 281.516 793.362 280.131 792.586L203.301 748.33C199.927 746.432 194.043 746.605 190.15 748.848L41.1619 834.685C39.172 835.807 38.0472 837.359 38.0472 838.826C38.0472 840.034 38.8259 841.155 40.2102 841.932L116.954 886.188Z" fill="url(#paint2_linear)"/>
<g opacity="0.1">
<path opacity="0.5" d="M116.867 886.36L40.0373 842.191C36.5764 840.206 37.009 836.756 40.989 834.513L190.064 748.675C194.044 746.432 200.013 746.173 203.474 748.157L280.304 792.413C283.765 794.398 283.333 797.848 279.353 800.091L130.278 885.929C126.298 888.086 120.328 888.344 116.867 886.36Z" fill="url(#paint3_radial)"/>
<g opacity="0.1">
<path opacity="0.1" d="M201.744 869.797C201.744 860.134 194.995 848.488 186.603 843.657C182.45 841.242 178.643 840.983 175.874 842.622L173.019 844.261L173.884 844.347C172.414 846.159 171.462 848.919 171.462 852.37C171.462 862.032 178.21 873.679 186.603 878.51C189.458 880.149 192.14 880.753 194.476 880.494L194.39 881.27L197.331 879.545L197.418 879.459C200.1 877.906 201.744 874.541 201.744 869.797Z" fill="#9FFFF8"/>
<path opacity="0.1" d="M194.366 881.276C200.283 877.869 200.296 866.846 194.395 856.654C188.494 846.463 178.913 840.963 172.995 844.37C167.078 847.776 167.065 858.8 172.966 868.991C178.867 879.182 188.448 884.682 194.366 881.276Z" fill="#42E8E0"/>
</g>
</g>
<path opacity="0.4" d="M263.865 799.66C262.654 800.35 260.751 800.35 259.626 799.66C258.415 798.97 258.415 797.848 259.626 797.244C260.837 796.554 262.741 796.554 263.865 797.244C265.077 797.935 265.077 798.97 263.865 799.66Z" fill="#24126A"/>
<path opacity="0.4" d="M247.686 787.927L255.992 792.672C257.03 793.276 256.857 794.311 255.733 794.915C254.521 795.605 252.791 795.692 251.753 795.088L243.447 790.343C242.408 789.739 242.581 788.704 243.706 788.1C244.917 787.41 246.648 787.323 247.686 787.927Z" fill="#24126A"/>
<path opacity="0.4" d="M200.273 759.2L208.579 763.945C209.617 764.549 209.444 765.584 208.319 766.188C207.108 766.878 205.378 766.964 204.34 766.36L196.034 761.615C194.995 761.011 195.168 759.976 196.293 759.372C197.504 758.682 199.235 758.596 200.273 759.2Z" fill="#24126A"/>
<path d="M263.865 796.727C262.654 797.417 260.751 797.417 259.626 796.727C258.415 796.037 258.415 794.915 259.626 794.311C260.837 793.621 262.741 793.621 263.865 794.311C265.077 794.915 265.077 796.037 263.865 796.727Z" fill="#42E8E0"/>
<path d="M247.686 784.908L255.992 789.653C257.03 790.257 256.857 791.292 255.733 791.896C254.521 792.586 252.791 792.672 251.753 792.068L243.447 787.323C242.408 786.72 242.581 785.684 243.706 785.081C244.917 784.39 246.648 784.39 247.686 784.908Z" fill="#42E8E0"/>
<path d="M200.273 756.267L208.579 761.011C209.617 761.615 209.444 762.651 208.319 763.254C207.108 763.945 205.378 764.031 204.34 763.427L196.034 758.682C194.995 758.078 195.168 757.043 196.293 756.439C197.504 755.749 199.235 755.663 200.273 756.267Z" fill="#42E8E0"/>
<g opacity="0.3">
<path opacity="0.3" d="M310.5 901.198V897.316L309.462 896.712C309.116 898.524 307.039 899.732 305.222 899.991L292.936 907.151L287.572 909.049L270.528 900.249L270.96 899.991C269.489 899.301 268.711 897.748 267.932 896.367L266.807 897.058L266.115 897.23V901.198C266.115 901.975 266.634 902.751 267.586 903.269L284.717 913.104C286.707 914.225 289.995 914.225 291.985 913.104L309.116 903.269C310.067 902.665 310.586 901.975 310.586 901.198C310.5 901.198 310.5 901.198 310.5 901.198Z" fill="url(#paint4_linear)"/>
<path opacity="0.3" d="M305.136 899.991L292.85 907.151L288.178 908.79V914.052C289.476 914.052 290.773 913.794 291.812 913.19L308.943 903.355C309.894 902.751 310.413 902.061 310.413 901.285V901.198V897.316L309.462 896.799H309.375C309.029 898.524 306.953 899.732 305.136 899.991Z" fill="#0F054C"/>
<g opacity="0.3">
<path opacity="0.3" d="M284.63 909.221L267.499 899.387C265.509 898.265 265.509 896.367 267.499 895.16L284.63 885.325C286.62 884.203 289.908 884.203 291.898 885.325L309.029 895.16C311.019 896.281 311.019 898.179 309.029 899.301L291.898 909.221C289.822 910.429 286.62 910.429 284.63 909.221Z" fill="url(#paint5_linear)"/>
</g>
<g opacity="0.3">
<path opacity="0.3" d="M284.63 909.221L267.499 899.387C265.509 898.265 265.509 896.367 267.499 895.16L284.63 885.325C286.62 884.203 289.908 884.203 291.898 885.325L309.029 895.16C311.019 896.281 311.019 898.179 309.029 899.301L291.898 909.221C289.822 910.429 286.62 910.429 284.63 909.221Z" fill="#0F054C"/>
</g>
</g>
<path d="M288.264 896.799C287.053 896.799 285.928 896.54 285.063 896.022L267.932 886.188C267.067 885.67 266.548 884.98 266.548 884.203C266.548 883.427 267.067 882.737 267.932 882.219L285.063 872.385C286.88 871.349 289.735 871.349 291.552 872.385L308.683 882.219C309.548 882.737 310.067 883.427 310.067 884.203C310.067 884.98 309.548 885.67 308.683 886.188L291.465 896.022C290.6 896.54 289.389 896.799 288.264 896.799ZM288.264 871.953C287.139 871.953 286.015 872.212 285.149 872.643L268.018 882.478C267.24 882.909 266.807 883.513 266.807 884.203C266.807 884.807 267.24 885.411 268.018 885.929L285.149 895.763C286.88 896.712 289.562 896.712 291.292 895.763L308.423 885.929C309.202 885.497 309.635 884.894 309.635 884.203C309.635 883.513 309.202 882.996 308.423 882.478L291.292 872.643C290.427 872.212 289.302 871.953 288.264 871.953Z" fill="#42E8E0"/>
<path opacity="0.4" d="M310.5 880.408V874.541L309.462 873.937C309.202 875.749 307.039 876.957 305.222 877.216L292.936 884.376L287.572 886.274L270.528 877.474L270.96 877.216C269.489 876.526 268.711 874.973 267.932 873.592L266.807 874.283L266.115 874.455V880.408C266.115 881.184 266.634 881.96 267.586 882.478L284.717 892.313C286.707 893.434 289.995 893.434 291.985 892.313L309.116 882.478C310.067 881.874 310.586 881.184 310.586 880.408C310.5 880.494 310.5 880.494 310.5 880.408Z" fill="#42E8E0"/>
<path d="M310.5 875.231V871.349L309.462 870.745C309.202 872.557 307.039 873.765 305.222 874.024L292.936 881.184L287.572 883.082L270.528 874.283L270.96 874.024C269.489 873.334 268.711 871.781 267.932 870.4L266.807 871.091L266.115 871.263V875.231C266.115 876.008 266.634 876.784 267.586 877.302L284.717 887.137C286.707 888.258 289.995 888.258 291.985 887.137L309.116 877.302C310.067 876.698 310.586 876.008 310.586 875.231C310.5 875.318 310.5 875.318 310.5 875.231Z" fill="url(#paint6_linear)"/>
<path opacity="0.3" d="M305.136 874.11L292.85 881.27L288.178 882.909V888.172C289.476 888.172 290.773 887.913 291.812 887.309L308.943 877.474C309.894 876.871 310.413 876.18 310.413 875.404V875.318V871.436L309.462 870.918H309.375C309.029 872.643 306.953 873.851 305.136 874.11Z" fill="#0F054C"/>
<path d="M284.63 883.341L267.499 873.506C265.509 872.385 265.509 870.487 267.499 869.279L284.63 859.444C286.62 858.323 289.908 858.323 291.898 859.444L309.029 869.279C311.019 870.4 311.019 872.298 309.029 873.506L291.898 883.341C289.822 884.462 286.62 884.462 284.63 883.341Z" fill="url(#paint7_linear)"/>
<path d="M308.943 873.506L291.898 883.341C289.908 884.462 286.62 884.462 284.63 883.341L267.499 873.506C266.634 872.988 266.115 872.298 266.029 871.694C265.942 872.557 266.375 873.42 267.499 874.024L284.63 883.858C286.62 884.98 289.908 884.98 291.898 883.858L309.029 874.024C310.154 873.42 310.673 872.557 310.5 871.694C310.327 872.298 309.894 872.988 308.943 873.506Z" fill="white"/>
<g opacity="0.3">
<path opacity="0.3" d="M234.276 924.146V920.264L233.237 919.66C232.978 921.472 230.815 922.679 228.998 922.938L216.712 930.098L211.348 931.996L194.303 923.197L194.736 922.938C193.265 922.248 192.486 920.695 191.708 919.315L190.583 920.005L189.891 920.178V924.146C189.891 924.922 190.41 925.699 191.361 926.216L208.492 936.051C210.482 937.173 213.77 937.173 215.76 936.051L232.891 926.216C233.843 925.613 234.362 924.922 234.362 924.146C234.276 924.232 234.276 924.232 234.276 924.146Z" fill="url(#paint8_linear)"/>
<path opacity="0.3" d="M228.911 922.938L216.625 930.098L211.953 931.738V937C213.251 937 214.549 936.741 215.587 936.137L232.718 926.303C233.67 925.699 234.189 925.009 234.189 924.232V924.146V920.264L233.237 919.746H233.151C232.891 921.558 230.728 922.766 228.911 922.938Z" fill="#0F054C"/>
<g opacity="0.3">
<path opacity="0.3" d="M208.406 932.255L191.275 922.421C189.285 921.299 189.285 919.401 191.275 918.193L208.406 908.359C210.396 907.237 213.684 907.237 215.674 908.359L232.805 918.193C234.795 919.315 234.795 921.213 232.805 922.421L215.674 932.255C213.684 933.377 210.396 933.377 208.406 932.255Z" fill="url(#paint9_linear)"/>
</g>
<g opacity="0.3">
<path opacity="0.3" d="M208.406 932.255L191.275 922.421C189.285 921.299 189.285 919.401 191.275 918.193L208.406 908.359C210.396 907.237 213.684 907.237 215.674 908.359L232.805 918.193C234.795 919.315 234.795 921.213 232.805 922.421L215.674 932.255C213.684 933.377 210.396 933.377 208.406 932.255Z" fill="#0F054C"/>
</g>
</g>
<path d="M212.04 917.935C210.829 917.935 209.704 917.676 208.839 917.158L191.708 907.323C190.842 906.806 190.323 906.116 190.323 905.339C190.323 904.563 190.842 903.873 191.708 903.355L208.839 893.52C210.656 892.485 213.511 892.485 215.328 893.52L232.459 903.355C233.324 903.873 233.843 904.563 233.843 905.339C233.843 906.116 233.324 906.806 232.459 907.323L215.328 917.158C214.376 917.676 213.165 917.935 212.04 917.935ZM208.925 916.899C210.656 917.848 213.338 917.848 215.068 916.899L232.199 907.065C232.978 906.633 233.41 906.029 233.41 905.339C233.41 904.735 232.978 904.132 232.199 903.614L215.068 893.779C213.338 892.83 210.656 892.83 208.925 893.779L191.794 903.614C191.015 904.045 190.583 904.649 190.583 905.339C190.583 905.943 191.015 906.547 191.794 907.065L208.925 916.899Z" fill="#42E8E0"/>
<path opacity="0.4" d="M234.276 901.543V895.677L233.237 895.073C232.978 896.885 230.815 898.093 228.998 898.352L216.712 905.512L211.348 907.41L194.303 898.61L194.736 898.352C193.265 897.661 192.486 896.109 191.708 894.728L190.583 895.418L189.891 895.591V901.543C189.891 902.32 190.41 903.096 191.361 903.614L208.406 913.535C210.396 914.656 213.684 914.656 215.674 913.535L232.805 903.7C233.756 903.096 234.276 902.406 234.276 901.63C234.276 901.63 234.276 901.63 234.276 901.543Z" fill="#42E8E0"/>
<path d="M234.276 896.367V892.485L233.237 891.881C232.978 893.693 230.815 894.901 228.998 895.16L216.712 902.32L211.348 904.218L194.303 895.418L194.736 895.16C193.265 894.469 192.486 892.917 191.708 891.536L190.583 892.226L189.891 892.399V896.367C189.891 897.144 190.41 897.92 191.361 898.438L208.406 908.359C210.396 909.48 213.684 909.48 215.674 908.359L232.805 898.524C233.756 897.92 234.276 897.23 234.276 896.454V896.367Z" fill="url(#paint10_linear)"/>
<path opacity="0.3" d="M228.911 895.16L216.625 902.32L211.953 903.959V909.221C213.251 909.221 214.549 908.963 215.587 908.359L232.718 898.524C233.67 897.92 234.189 897.23 234.189 896.454V896.367V892.485L233.237 891.968H233.151C232.891 893.779 230.728 894.901 228.911 895.16Z" fill="#0F054C"/>
<path d="M208.406 904.477L191.275 894.556C189.285 893.434 189.285 891.536 191.275 890.329L208.406 880.494C210.396 879.372 213.684 879.372 215.674 880.494L232.805 890.329C234.795 891.45 234.795 893.348 232.805 894.469L215.674 904.304C213.684 905.598 210.396 905.598 208.406 904.477Z" fill="url(#paint11_linear)"/>
<path d="M212.04 902.665C211.002 902.665 209.963 902.406 209.098 901.975L195.687 894.297C194.909 893.866 194.476 893.175 194.476 892.571C194.476 891.881 194.909 891.277 195.687 890.846L209.098 883.168C210.742 882.219 213.338 882.219 214.895 883.168L228.306 890.846C229.084 891.277 229.517 891.968 229.517 892.571C229.517 893.262 229.084 893.866 228.306 894.297L214.895 901.975C214.116 902.406 213.078 902.665 212.04 902.665ZM209.271 901.716C210.829 902.579 213.251 902.579 214.808 901.716L228.219 894.038C228.911 893.607 229.344 893.089 229.344 892.571C229.344 891.968 228.911 891.45 228.219 891.105L214.808 883.427C213.251 882.564 210.829 882.564 209.271 883.427L195.861 891.105C195.168 891.536 194.736 892.054 194.736 892.571C194.736 893.175 195.168 893.693 195.861 894.038L209.271 901.716Z" fill="#5351AF"/>
<path d="M232.805 894.556L215.674 904.39C213.684 905.512 210.396 905.512 208.406 904.39L191.275 894.556C190.41 894.038 189.891 893.348 189.804 892.744C189.718 893.607 190.15 894.469 191.275 895.073L208.406 904.908C210.396 906.029 213.684 906.029 215.674 904.908L232.805 895.073C233.93 894.469 234.449 893.607 234.276 892.744C234.189 893.434 233.67 894.038 232.805 894.556Z" fill="white"/>
<g opacity="0.3">
<path opacity="0.3" d="M87.883 786.978V783.096L86.8448 782.492C86.5852 784.304 84.4222 785.512 82.6053 785.771L70.3194 792.931L64.9551 794.829L47.9106 786.029L48.3432 785.771C46.8723 785.081 46.0937 783.528 45.315 782.147L44.1902 782.838L43.498 783.01V786.978C43.498 787.755 44.0172 788.531 44.9689 789.049L62.0999 798.884C64.0899 800.005 67.3777 800.005 69.3676 798.884L86.4122 789.135C87.3639 788.531 87.883 787.841 87.883 787.065C87.883 787.065 87.883 787.065 87.883 786.978Z" fill="url(#paint12_linear)"/>
<path opacity="0.3" d="M82.6052 785.857L70.3193 793.017L65.6472 794.656V799.919C66.945 799.919 68.2428 799.66 69.2811 799.056L86.4121 789.135C87.3638 788.531 87.883 787.841 87.883 787.065V786.978V783.096L86.9312 782.579H86.8447C86.4986 784.39 84.3356 785.598 82.6052 785.857Z" fill="#0F054C"/>
<g opacity="0.3">
<path opacity="0.3" d="M62.0134 795.088L44.8824 785.253C42.8924 784.132 42.8924 782.234 44.8824 781.026L62.0134 771.191C64.0034 770.07 67.2911 770.07 69.2811 771.191L86.4121 781.026C88.4021 782.147 88.4021 784.045 86.4121 785.253L69.2811 795.088C67.2911 796.209 64.0034 796.209 62.0134 795.088Z" fill="url(#paint13_linear)"/>
</g>
<g opacity="0.3">
<path opacity="0.3" d="M62.0134 795.088L44.8824 785.253C42.8924 784.132 42.8924 782.234 44.8824 781.026L62.0134 771.191C64.0034 770.07 67.2911 770.07 69.2811 771.191L86.4121 781.026C88.4021 782.147 88.4021 784.045 86.4121 785.253L69.2811 795.088C67.2911 796.209 64.0034 796.209 62.0134 795.088Z" fill="#0F054C"/>
</g>
</g>
<path d="M65.6473 783.269C64.436 783.269 63.3112 783.01 62.446 782.492L45.315 772.658C44.4498 772.14 43.9307 771.45 43.9307 770.674C43.9307 769.897 44.4498 769.207 45.315 768.689L62.446 758.855C64.263 757.82 67.1181 757.82 68.9351 758.855L86.0661 768.689C86.9313 769.207 87.4504 769.897 87.4504 770.674C87.4504 771.45 86.9313 772.14 86.0661 772.658L68.8485 782.492C67.9833 783.01 66.8586 783.269 65.6473 783.269ZM65.6473 758.423C64.5225 758.423 63.3977 758.682 62.5325 759.114L45.488 769.034C44.7093 769.466 44.2767 770.07 44.2767 770.76C44.2767 771.364 44.7093 771.968 45.488 772.485L62.6191 782.32C64.3495 783.269 67.0316 783.269 68.762 782.32L85.893 772.485C86.6717 772.054 87.1043 771.45 87.1043 770.76C87.1043 770.156 86.6717 769.552 85.893 769.034L68.762 759.2C67.8968 758.682 66.772 758.423 65.6473 758.423Z" fill="#42E8E0"/>
<path opacity="0.4" d="M87.8829 766.964V761.098L86.8446 760.494C86.5851 762.306 84.422 763.513 82.6051 763.772L70.3192 770.932L64.955 772.83L47.9104 764.031L48.343 763.772C46.8722 763.082 46.0935 761.529 45.3148 760.149L44.1035 760.839L43.4114 761.011V766.964C43.4114 767.74 43.9305 768.517 44.8822 769.035L62.0133 778.955C64.0032 780.077 67.291 780.077 69.281 778.955L86.412 769.121C87.3637 768.517 87.8829 767.827 87.8829 767.05C87.8829 766.964 87.8829 766.964 87.8829 766.964Z" fill="#42E8E0"/>
<path d="M87.883 761.702V757.82L86.8448 757.216C86.5852 759.027 84.4222 760.235 82.6053 760.494L70.3194 767.74L64.9551 769.638L47.9106 760.839L48.3432 760.58C46.8723 759.89 46.0937 758.337 45.315 756.957L44.1902 757.647L43.498 757.82V761.788C43.498 762.564 44.0172 763.341 44.9689 763.858L62.0134 773.779C64.0034 774.901 67.2912 774.901 69.2811 773.779L86.4122 763.858C87.3639 763.255 87.883 762.564 87.883 761.788C87.883 761.788 87.883 761.788 87.883 761.702Z" fill="url(#paint14_linear)"/>
<path opacity="0.3" d="M82.6052 760.58L70.3193 767.74L65.6472 769.38V774.642C66.945 774.642 68.2428 774.383 69.2811 773.779L86.4121 763.858C87.3638 763.254 87.883 762.564 87.883 761.788V761.702V757.82L86.9312 757.302H86.8447C86.4986 759.114 84.3356 760.321 82.6052 760.58Z" fill="#0F054C"/>
<path d="M48.2567 760.58L64.436 751.263C65.0417 750.918 66.0799 750.918 66.7721 751.263L82.6918 760.408L82.5188 760.494C84.3357 760.235 86.4987 759.027 86.7583 757.216L68.9351 747.381L63.7439 746.001L59.5044 748.503L45.2285 756.957C46.0072 758.423 46.7859 759.976 48.2567 760.58Z" fill="url(#paint15_linear)"/>
<path opacity="0.3" d="M65.6473 746.518L63.7439 746.001L59.5044 748.503L45.2285 756.957C46.0072 758.337 46.7859 759.89 48.2567 760.58L64.436 751.263C64.7821 751.091 65.2147 751.004 65.5608 751.004V746.518H65.6473Z" fill="#0F054C"/>
<path d="M62.0134 769.811L44.8824 759.976C42.8924 758.855 42.8924 756.957 44.8824 755.749L62.0134 745.914C64.0034 744.793 67.2911 744.793 69.2811 745.914L86.4121 755.749C88.4021 756.871 88.4021 758.769 86.4121 759.89L69.2811 769.811C67.2911 770.932 64.0034 770.932 62.0134 769.811ZM66.8585 747.381C66.2529 747.036 65.2147 747.036 64.5225 747.381L47.3915 757.216C46.7858 757.561 46.7858 758.165 47.3915 758.596L64.5225 768.431C65.1281 768.776 66.1664 768.776 66.8585 768.431L83.9896 758.596C84.5952 758.251 84.5952 757.647 83.9896 757.216L66.8585 747.381Z" fill="url(#paint16_linear)"/>
<path d="M83.9031 757.216L66.8586 747.381C66.2529 747.036 65.2147 747.036 64.5225 747.381L47.3915 757.216C46.9589 757.474 46.7858 757.82 46.9589 758.165C47.0454 757.992 47.1319 757.82 47.3915 757.733L64.5225 747.899C65.1282 747.554 66.1664 747.554 66.8586 747.899L83.9896 757.733C84.1626 757.82 84.3357 757.992 84.4222 758.165C84.5087 757.82 84.3357 757.474 83.9031 757.216Z" fill="white"/>
<path d="M86.4122 759.976L69.2812 769.811C67.2912 770.932 64.0034 770.932 62.0135 769.811L44.8824 759.976C44.0172 759.459 43.4981 758.768 43.4116 758.165C43.3251 759.027 43.7577 759.89 44.8824 760.494L62.0135 770.329C64.0034 771.45 67.2912 771.45 69.2812 770.329L86.4122 760.408C87.537 759.804 88.0561 758.941 87.8831 758.078C87.7965 758.768 87.2774 759.459 86.4122 759.976Z" fill="white"/>
<path d="M62.5326 769.552L45.4016 759.717C43.6712 758.682 43.6712 757.129 45.4016 756.094L62.5326 746.173C64.263 745.138 67.1182 745.138 68.8486 746.173L85.9796 756.008C87.71 757.043 87.71 758.596 85.9796 759.631L68.8486 769.552C67.0317 770.501 64.263 770.501 62.5326 769.552ZM67.2912 747.036C66.426 746.518 64.8687 746.518 64.0034 747.036L46.8724 756.957C46.0072 757.474 46.0072 758.337 46.8724 758.855L64.0034 768.689C64.8687 769.207 66.426 769.207 67.2912 768.689L84.4223 758.855C85.2875 758.337 85.2875 757.474 84.4223 756.957L67.2912 747.036Z" fill="url(#paint17_linear)"/>
<path opacity="0.4" d="M66.8586 747.381C66.2529 747.036 65.2147 747.036 64.5225 747.381L47.3915 757.216C46.7858 757.561 46.7858 758.165 47.3915 758.596L64.5225 768.431C65.1282 768.776 66.1664 768.776 66.8586 768.431L83.9896 758.596C84.5953 758.251 84.5953 757.647 83.9896 757.216L66.8586 747.381Z" fill="#42E8E0"/>
<path d="M201.744 806.303C201.744 796.641 194.995 784.994 186.603 780.163C182.45 777.748 178.643 777.489 175.874 779.128L173.019 780.767L173.884 780.853C172.414 782.665 171.462 785.426 171.462 788.876C171.462 798.538 178.21 810.185 186.603 815.016C189.458 816.655 192.14 817.259 194.476 817L194.39 817.776L197.331 816.051L197.418 815.965C200.1 814.412 201.744 811.047 201.744 806.303Z" fill="#9FFFF8"/>
<path d="M194.352 817.786C200.27 814.379 200.283 803.356 194.381 793.165C188.48 782.973 178.899 777.473 172.982 780.88C167.064 784.286 167.051 795.31 172.952 805.501C178.854 815.692 188.435 821.193 194.352 817.786Z" fill="#42E8E0"/>
<path d="M166.357 764.721C171.981 756.871 173.279 743.413 169.212 734.699C167.222 730.3 164.28 727.971 161.079 727.625L157.791 727.367L158.397 727.884C156.061 728.488 153.812 730.214 151.822 733.06C146.198 740.911 144.9 754.369 148.966 763.082C150.351 766.101 152.168 768.172 154.158 769.207L153.638 769.811L157.013 770.07H157.186C160.301 770.415 163.588 768.603 166.357 764.721Z" fill="#9FFFF8"/>
<path d="M168.09 749.767C169.219 738.053 164.62 728.029 157.818 727.377C151.017 726.726 144.588 735.694 143.459 747.408C142.331 759.122 146.93 769.146 153.731 769.798C160.533 770.449 166.962 761.481 168.09 749.767Z" fill="#42E8E0"/>
<g opacity="0.1">
<path opacity="0.1" d="M171.462 828.042C171.462 818.38 164.713 806.734 156.321 801.903C152.168 799.487 148.361 799.229 145.592 800.868L142.737 802.507L143.602 802.593C142.131 804.405 141.18 807.165 141.18 810.616C141.18 820.278 147.928 831.925 156.321 836.756C159.176 838.395 161.858 838.999 164.194 838.74L164.108 839.516L167.049 837.791L167.136 837.705C169.818 836.152 171.462 832.787 171.462 828.042Z" fill="#9FFFF8"/>
<path opacity="0.1" d="M164.142 839.494C170.06 836.088 170.073 825.065 164.172 814.873C158.27 804.682 148.689 799.182 142.772 802.588C136.854 805.995 136.841 817.018 142.743 827.21C148.644 837.401 158.225 842.901 164.142 839.494Z" fill="#42E8E0"/>
</g>
<path opacity="0.4" d="M154.417 843.743C143.948 843.743 133.566 841.414 125.606 836.842C117.906 832.356 113.666 826.49 113.666 820.192C113.666 813.894 117.906 807.942 125.606 803.542C141.526 794.398 167.395 794.398 183.228 803.542C190.929 808.028 195.168 813.894 195.168 820.192C195.168 826.49 190.929 832.442 183.228 836.842L183.142 836.669L183.228 836.842C175.268 841.5 164.886 843.743 154.417 843.743ZM154.417 796.986C144.035 796.986 133.652 799.229 125.779 803.801C118.165 808.201 113.926 813.981 113.926 820.192C113.926 826.403 118.165 832.183 125.779 836.583C141.612 845.728 167.309 845.728 183.142 836.583C190.756 832.183 194.995 826.403 194.995 820.192C194.995 813.981 190.756 808.201 183.142 803.801C175.182 799.229 164.8 796.986 154.417 796.986Z" fill="#42E8E0"/>
<path opacity="0.2" d="M154.417 850.127C141.18 850.127 127.942 847.194 117.819 841.414C108.042 835.807 102.592 828.301 102.592 820.278C102.592 812.255 107.956 804.75 117.819 799.142C137.978 787.496 170.77 787.496 190.929 799.142C200.706 804.75 206.156 812.255 206.156 820.278C206.156 828.301 200.792 835.807 190.929 841.414C180.892 847.194 167.655 850.127 154.417 850.127ZM154.417 790.688C141.266 790.688 128.029 793.535 117.992 799.401C108.302 805.009 102.938 812.428 102.938 820.278C102.938 828.129 108.302 835.548 117.992 841.155C138.065 852.715 170.77 852.715 190.842 841.155C200.533 835.548 205.897 828.129 205.897 820.278C205.897 812.428 200.533 805.009 190.842 799.401C180.806 793.535 167.568 790.688 154.417 790.688Z" fill="#42E8E0"/>
<path d="M154.417 838.826C146.198 838.826 137.978 837.014 131.662 833.391C125.606 829.854 122.232 825.196 122.232 820.192C122.232 815.188 125.606 810.53 131.662 806.993C144.208 799.746 164.54 799.746 177.086 806.993C183.142 810.53 186.516 815.188 186.516 820.192C186.516 825.196 183.142 829.854 177.086 833.391L176.999 833.219L177.086 833.391C170.856 837.014 162.637 838.826 154.417 838.826ZM154.417 801.989C146.284 801.989 138.065 803.801 131.835 807.338C125.866 810.789 122.491 815.361 122.491 820.278C122.491 825.196 125.779 829.768 131.835 833.219C144.294 840.379 164.54 840.379 176.999 833.219C182.969 829.768 186.343 825.196 186.343 820.278C186.343 815.447 183.056 810.789 176.999 807.338C170.77 803.715 162.55 801.989 154.417 801.989Z" fill="#42E8E0"/>
<path d="M171.462 828.042C171.462 818.38 164.713 806.734 156.321 801.903C152.168 799.487 148.361 799.229 145.592 800.868L142.737 802.507L143.602 802.593C142.131 804.405 141.18 807.165 141.18 810.616C141.18 820.278 147.928 831.925 156.321 836.756C159.176 838.395 161.858 838.999 164.194 838.74L164.108 839.516L167.049 837.791L167.136 837.705C169.818 836.152 171.462 832.787 171.462 828.042Z" fill="#9FFFF8"/>
<path d="M164.142 839.494C170.06 836.088 170.073 825.065 164.172 814.873C158.27 804.682 148.689 799.182 142.772 802.588C136.854 805.995 136.841 817.018 142.743 827.21C148.644 837.401 158.225 842.901 164.142 839.494Z" fill="#42E8E0"/>
<path opacity="0.4" d="M113.753 869.71L66.2531 842.363C64.8688 841.587 64.8688 839.516 66.2531 838.74L73.5208 834.513C75.9434 833.132 78.9716 833.132 81.3942 834.513L128.894 861.86C130.278 862.636 130.278 864.707 128.894 865.483L121.626 869.71C119.204 871.09 116.175 871.09 113.753 869.71Z" fill="#24126A"/>
<path d="M89.9594 841.759L82.4321 837.359L83.903 836.497L91.5168 840.896L89.9594 841.759Z" fill="#42E8E0"/>
<path d="M111.417 854.354L109.081 853.06L110.638 852.198L112.974 853.492L111.417 854.354Z" fill="#42E8E0"/>
<path d="M94.3722 844.347L92.0361 842.967L93.5935 842.104L95.9296 843.485L94.3722 844.347Z" fill="#42E8E0"/>
<path d="M117.733 864.275C116.348 864.275 114.964 863.93 113.753 863.24L66.2529 835.893C65.5608 835.462 65.1282 834.771 65.1282 833.909C65.1282 833.046 65.5608 832.356 66.2529 831.925L73.5206 827.697C76.0297 826.317 79.058 826.317 81.567 827.697L129.067 855.045C129.759 855.476 130.191 856.166 130.191 857.029C130.191 857.891 129.759 858.582 129.067 859.013L121.799 863.24C120.501 863.93 119.117 864.275 117.733 864.275ZM77.4141 826.921C76.1163 826.921 74.7319 827.266 73.6072 827.956L66.3395 832.183C65.7338 832.528 65.3877 833.132 65.3877 833.822C65.3877 834.513 65.7338 835.116 66.3395 835.462L113.839 862.809C116.175 864.189 119.117 864.189 121.539 862.809L128.807 858.582C129.413 858.237 129.759 857.633 129.759 856.942C129.759 856.252 129.413 855.648 128.807 855.303L81.3075 827.956C80.0962 827.266 78.7984 826.921 77.4141 826.921Z" fill="#42E8E0"/>
</g>
<defs>
<linearGradient id="paint0_linear" x1="-25.6319" y1="571.7" x2="537.991" y2="571.231" gradientUnits="userSpaceOnUse">
<stop stop-color="#18A9DF"/>
<stop offset="1" stop-color="#1A0066"/>
</linearGradient>
<linearGradient id="paint1_linear" x1="34.6716" y1="828.208" x2="285.831" y2="828.208" gradientUnits="userSpaceOnUse">
<stop stop-color="#BCBEFF"/>
<stop offset="0.151" stop-color="#A3A7F5"/>
<stop offset="0.3866" stop-color="#8289E8"/>
<stop offset="0.6124" stop-color="#6A73DF"/>
<stop offset="0.8221" stop-color="#5C66D9"/>
<stop offset="1" stop-color="#5761D7"/>
</linearGradient>
<linearGradient id="paint2_linear" x1="195.233" y1="863.638" x2="125.384" y2="770.675" gradientUnits="userSpaceOnUse">
<stop stop-color="#42E8E0"/>
<stop offset="0.1055" stop-color="#37B6BF"/>
<stop offset="0.2197" stop-color="#2C87A1"/>
<stop offset="0.338" stop-color="#235F87"/>
<stop offset="0.4587" stop-color="#1C3F72"/>
<stop offset="0.5824" stop-color="#162561"/>
<stop offset="0.7105" stop-color="#121355"/>
<stop offset="0.8458" stop-color="#10084E"/>
<stop offset="1" stop-color="#0F054C"/>
</linearGradient>
<radialGradient id="paint3_radial" cx="0" cy="0" r="1" gradientUnits="userSpaceOnUse" gradientTransform="translate(154.018 819.622) scale(196.583 196.012)">
<stop stop-color="#42E8E0"/>
<stop offset="0.1055" stop-color="#37B6BF"/>
<stop offset="0.2197" stop-color="#2C87A1"/>
<stop offset="0.338" stop-color="#235F87"/>
<stop offset="0.4587" stop-color="#1C3F72"/>
<stop offset="0.5824" stop-color="#162561"/>
<stop offset="0.7105" stop-color="#121355"/>
<stop offset="0.8458" stop-color="#10084E"/>
<stop offset="1" stop-color="#0F054C"/>
</radialGradient>
<linearGradient id="paint4_linear" x1="270.398" y1="889.62" x2="305.656" y2="910.035" gradientUnits="userSpaceOnUse">
<stop stop-color="#BCBEFF"/>
<stop offset="0.2271" stop-color="#AAADF8"/>
<stop offset="0.6802" stop-color="#7C83E5"/>
<stop offset="1" stop-color="#5761D7"/>
</linearGradient>
<linearGradient id="paint5_linear" x1="265.971" y1="897.303" x2="310.473" y2="897.303" gradientUnits="userSpaceOnUse">
<stop stop-color="#E9E9FD"/>
<stop offset="0.3601" stop-color="#D3D2F9"/>
<stop offset="0.7062" stop-color="#C5C4F7"/>
<stop offset="1" stop-color="#C0BFF6"/>
</linearGradient>
<linearGradient id="paint6_linear" x1="270.398" y1="863.706" x2="305.656" y2="884.121" gradientUnits="userSpaceOnUse">
<stop stop-color="#BCBEFF"/>
<stop offset="0.2271" stop-color="#AAADF8"/>
<stop offset="0.6802" stop-color="#7C83E5"/>
<stop offset="1" stop-color="#5761D7"/>
</linearGradient>
<linearGradient id="paint7_linear" x1="265.971" y1="871.389" x2="310.473" y2="871.389" gradientUnits="userSpaceOnUse">
<stop stop-color="#E9E9FD"/>
<stop offset="0.3601" stop-color="#D3D2F9"/>
<stop offset="0.7062" stop-color="#C5C4F7"/>
<stop offset="1" stop-color="#C0BFF6"/>
</linearGradient>
<linearGradient id="paint8_linear" x1="194.201" y1="912.612" x2="229.458" y2="933.027" gradientUnits="userSpaceOnUse">
<stop stop-color="#BCBEFF"/>
<stop offset="0.2271" stop-color="#AAADF8"/>
<stop offset="0.6802" stop-color="#7C83E5"/>
<stop offset="1" stop-color="#5761D7"/>
</linearGradient>
<linearGradient id="paint9_linear" x1="189.774" y1="920.295" x2="234.276" y2="920.295" gradientUnits="userSpaceOnUse">
<stop stop-color="#E9E9FD"/>
<stop offset="0.3601" stop-color="#D3D2F9"/>
<stop offset="0.7062" stop-color="#C5C4F7"/>
<stop offset="1" stop-color="#C0BFF6"/>
</linearGradient>
<linearGradient id="paint10_linear" x1="194.201" y1="884.818" x2="229.458" y2="905.233" gradientUnits="userSpaceOnUse">
<stop stop-color="#BCBEFF"/>
<stop offset="0.2271" stop-color="#AAADF8"/>
<stop offset="0.6802" stop-color="#7C83E5"/>
<stop offset="1" stop-color="#5761D7"/>
</linearGradient>
<linearGradient id="paint11_linear" x1="189.774" y1="892.501" x2="234.276" y2="892.501" gradientUnits="userSpaceOnUse">
<stop stop-color="#E9E9FD"/>
<stop offset="0.3601" stop-color="#D3D2F9"/>
<stop offset="0.7062" stop-color="#C5C4F7"/>
<stop offset="1" stop-color="#C0BFF6"/>
</linearGradient>
<linearGradient id="paint12_linear" x1="47.8369" y1="775.457" x2="83.0942" y2="795.873" gradientUnits="userSpaceOnUse">
<stop stop-color="#BCBEFF"/>
<stop offset="0.2271" stop-color="#AAADF8"/>
<stop offset="0.6802" stop-color="#7C83E5"/>
<stop offset="1" stop-color="#5761D7"/>
</linearGradient>
<linearGradient id="paint13_linear" x1="43.4095" y1="783.141" x2="87.9118" y2="783.141" gradientUnits="userSpaceOnUse">
<stop stop-color="#E9E9FD"/>
<stop offset="0.3601" stop-color="#D3D2F9"/>
<stop offset="0.7062" stop-color="#C5C4F7"/>
<stop offset="1" stop-color="#C0BFF6"/>
</linearGradient>
<linearGradient id="paint14_linear" x1="47.837" y1="750.192" x2="83.0942" y2="770.607" gradientUnits="userSpaceOnUse">
<stop stop-color="#BCBEFF"/>
<stop offset="0.2271" stop-color="#AAADF8"/>
<stop offset="0.6802" stop-color="#7C83E5"/>
<stop offset="1" stop-color="#5761D7"/>
</linearGradient>
<linearGradient id="paint15_linear" x1="49.956" y1="748.823" x2="81.3985" y2="767.029" gradientUnits="userSpaceOnUse">
<stop offset="0.2421" stop-color="#5761D7"/>
<stop offset="0.3923" stop-color="#7A82E5"/>
<stop offset="0.5463" stop-color="#979CF0"/>
<stop offset="0.7" stop-color="#ACAFF8"/>
<stop offset="0.8519" stop-color="#B8BAFD"/>
<stop offset="1" stop-color="#BCBEFF"/>
</linearGradient>
<linearGradient id="paint16_linear" x1="43.4095" y1="757.875" x2="87.9118" y2="757.875" gradientUnits="userSpaceOnUse">
<stop stop-color="#E9E9FD"/>
<stop offset="0.3601" stop-color="#D3D2F9"/>
<stop offset="0.7062" stop-color="#C5C4F7"/>
<stop offset="1" stop-color="#C0BFF6"/>
</linearGradient>
<linearGradient id="paint17_linear" x1="44.0928" y1="757.875" x2="87.2286" y2="757.875" gradientUnits="userSpaceOnUse">
<stop stop-color="#E9E9FD"/>
<stop offset="0.3601" stop-color="#D3D2F9"/>
<stop offset="0.7062" stop-color="#C5C4F7"/>
<stop offset="1" stop-color="#C0BFF6"/>
</linearGradient>
<clipPath id="clip0">
<rect width="276" height="240" fill="white" transform="translate(34.5 697)"/>
</clipPath>
</defs>
</svg>
