<svg width="100" height="101" viewBox="0 0 100 101" fill="none" xmlns="http://www.w3.org/2000/svg">
<g filter="url(#filter0_d)">
<rect x="26" y="70.6212" width="48" height="48" rx="24" transform="rotate(-90 26 70.6212)" fill="#FAFAFA"/>
<path d="M46.39 41.9045L51.5633 47.0778L46.39 52.2511C45.87 52.7711 45.87 53.6111 46.39 54.1311C46.91 54.6511 47.75 54.6511 48.27 54.1311L54.39 48.0111C54.91 47.4911 54.91 46.6511 54.39 46.1311L48.27 40.0112C47.75 39.4911 46.91 39.4911 46.39 40.0112C45.8833 40.5311 45.87 41.3845 46.39 41.9045Z" fill="#F86296"/>
<rect x="27" y="69.6212" width="46" height="46" rx="23" transform="rotate(-90 27 69.6212)" stroke="#F86296" stroke-width="2"/>
</g>
<defs>
<filter id="filter0_d" x="0" y="0.621155" width="100" height="100" filterUnits="userSpaceOnUse" color-interpolation-filters="sRGB">
<feFlood flood-opacity="0" result="BackgroundImageFix"/>
<feColorMatrix in="SourceAlpha" type="matrix" values="0 0 0 0 0 0 0 0 0 0 0 0 0 0 0 0 0 0 127 0" result="hardAlpha"/>
<feMorphology radius="6" operator="dilate" in="SourceAlpha" result="effect1_dropShadow"/>
<feOffset dy="4"/>
<feGaussianBlur stdDeviation="10"/>
<feComposite in2="hardAlpha" operator="out"/>
<feColorMatrix type="matrix" values="0 0 0 0 0.504167 0 0 0 0 0.502066 0 0 0 0 0.502066 0 0 0 0.1 0"/>
<feBlend mode="normal" in2="BackgroundImageFix" result="effect1_dropShadow"/>
<feBlend mode="normal" in="SourceGraphic" in2="effect1_dropShadow" result="shape"/>
</filter>
</defs>
</svg>
