<svg width="1171" height="538" viewBox="0 0 1171 538" fill="none" xmlns="http://www.w3.org/2000/svg">
<rect width="1171" height="538" fill="url(#paint0_linear)"/>
<g clip-path="url(#clip0)">
<path d="M802.84 443.23C798.944 443.23 795.048 442.479 792.351 440.826L654.345 360.892C651.498 359.239 650 357.136 650 354.582C650 351.577 652.248 348.722 655.994 346.468L919.118 194.263C926.311 190.056 937.1 189.605 943.393 193.211L1081.4 273.145C1084.1 274.798 1085.74 276.901 1085.74 279.456C1085.74 282.461 1083.5 285.316 1079.75 287.569L816.476 439.774C812.58 442.028 807.485 443.23 802.84 443.23ZM792.501 440.225C798.495 443.681 809.134 443.23 816.176 439.173L1079.3 286.818C1082.9 284.715 1084.99 282.01 1084.99 279.306C1084.99 277.052 1083.65 275.098 1080.95 273.596L942.944 193.662C936.95 190.206 926.311 190.657 919.268 194.714L656.293 347.069C652.697 349.173 650.599 351.877 650.599 354.582C650.599 356.835 651.948 358.789 654.645 360.291L792.501 440.225Z" fill="#42E8E0"/>
<path d="M1085.29 242.494L1065.52 245.95L943.243 175.181C937.1 171.575 926.461 172.026 919.268 176.233L685.363 311.459L650.3 317.469V329.94C650.3 332.194 651.648 334.448 654.495 335.95L792.351 415.884C798.495 419.49 809.133 419.04 816.326 414.832L1079.45 262.477C1083.2 260.224 1085.29 257.519 1085.29 254.814V242.494Z" fill="url(#paint1_linear)"/>
<path d="M792.352 403.413L654.496 323.479C648.352 319.873 649.101 313.713 656.144 309.656L919.269 157.301C926.311 153.244 937.1 152.794 943.244 156.249L1081.25 236.183C1087.39 239.789 1086.64 245.95 1079.6 250.006L816.326 402.362C809.284 406.569 798.495 407.019 792.352 403.413Z" fill="#24126A"/>
<path d="M1079.45 250.157L816.326 402.362C809.283 406.418 798.494 406.869 792.351 403.413L654.495 323.479C652.098 322.127 650.749 320.174 650.449 318.221C650 320.925 651.348 323.329 654.495 325.132L792.351 405.066C798.494 408.672 809.133 408.221 816.326 404.014L1079.45 251.659C1083.65 249.255 1085.59 245.95 1085.29 243.095C1084.84 245.499 1082.9 248.053 1079.45 250.157Z" fill="white"/>
<path opacity="0.51" d="M792.651 400.258L659.59 323.329C653.596 319.873 654.345 313.863 661.238 309.957L919.418 160.456C926.311 156.55 936.65 156.099 942.644 159.555L1075.7 236.634C1081.7 240.09 1080.95 246.1 1074.06 250.006L815.876 399.507C808.984 403.263 798.644 403.714 792.651 400.258Z" fill="#453C9E"/>
<path opacity="0.8" d="M802.69 399.657C798.794 399.657 795.198 398.906 792.351 397.253L659.44 320.174C656.743 318.671 655.245 316.418 655.245 314.014C655.245 311.159 657.342 308.154 661.089 306.05L919.268 156.55C926.161 152.493 936.8 152.042 942.794 155.648L1075.85 232.728C1078.55 234.23 1080.05 236.484 1080.05 238.888C1080.05 241.743 1077.95 244.748 1074.21 246.851L816.026 396.352C812.28 398.455 807.336 399.657 802.69 399.657ZM792.801 396.502C798.645 399.807 808.834 399.507 815.577 395.6L1073.76 246.1C1077.2 244.147 1079.15 241.442 1079.15 238.888C1079.15 236.784 1077.8 234.831 1075.41 233.479L942.344 156.4C936.5 153.094 926.311 153.395 919.568 157.301L661.538 306.802C658.092 308.755 656.144 311.459 656.144 314.014C656.144 316.117 657.492 318.07 659.89 319.423L792.801 396.502Z" fill="url(#paint2_linear)"/>
<g opacity="0.1">
<path opacity="0.5" d="M792.651 396.802L659.59 319.874C653.596 316.418 654.345 310.408 661.238 306.501L919.418 157.001C926.311 153.094 936.65 152.643 942.644 156.099L1075.7 233.178C1081.7 236.634 1080.95 242.644 1074.06 246.551L815.876 396.051C808.984 399.807 798.644 400.258 792.651 396.802Z" fill="url(#paint3_radial)"/>
<g opacity="0.1">
<path opacity="0.1" d="M939.647 367.954C939.647 351.126 927.959 330.842 913.424 322.428C906.232 318.221 899.639 317.77 894.844 320.625L889.899 323.48L891.397 323.63C888.85 326.785 887.202 331.593 887.202 337.603C887.202 354.431 898.889 374.715 913.424 383.129C918.369 385.984 923.014 387.036 927.06 386.585L926.91 387.938L932.005 384.932L932.155 384.782C936.8 382.078 939.647 376.218 939.647 367.954Z" fill="#9FFFF8"/>
<path opacity="0.1" d="M926.869 387.947C937.117 382.014 937.14 362.815 926.919 345.065C916.699 327.315 900.106 317.736 889.858 323.669C879.609 329.602 879.587 348.801 889.807 366.551C900.027 384.301 916.62 393.88 926.869 387.947Z" fill="#42E8E0"/>
</g>
</g>
<path opacity="0.4" d="M1047.23 245.799C1045.14 247.001 1041.84 247.001 1039.89 245.799C1037.79 244.597 1037.79 242.644 1039.89 241.592C1041.99 240.39 1045.29 240.39 1047.23 241.592C1049.33 242.794 1049.33 244.597 1047.23 245.799Z" fill="#24126A"/>
<path opacity="0.4" d="M1019.21 225.365L1033.6 233.629C1035.4 234.681 1035.1 236.484 1033.15 237.536C1031.05 238.738 1028.05 238.888 1026.26 237.836L1011.87 229.572C1010.07 228.52 1010.37 226.717 1012.32 225.666C1014.42 224.464 1017.42 224.313 1019.21 225.365Z" fill="#24126A"/>
<path opacity="0.4" d="M937.1 175.331L951.484 183.595C953.283 184.647 952.983 186.45 951.035 187.502C948.937 188.704 945.94 188.854 944.142 187.802L929.757 179.538C927.959 178.487 928.259 176.684 930.207 175.632C932.305 174.43 935.301 174.28 937.1 175.331Z" fill="#24126A"/>
<path d="M1047.23 240.691C1045.14 241.893 1041.84 241.893 1039.89 240.691C1037.79 239.489 1037.79 237.536 1039.89 236.484C1041.99 235.282 1045.29 235.282 1047.23 236.484C1049.33 237.536 1049.33 239.489 1047.23 240.691Z" fill="#42E8E0"/>
<path d="M1019.21 220.106L1033.6 228.37C1035.4 229.422 1035.1 231.225 1033.15 232.277C1031.05 233.479 1028.05 233.629 1026.26 232.577L1011.87 224.313C1010.07 223.262 1010.37 221.459 1012.32 220.407C1014.42 219.205 1017.42 219.205 1019.21 220.106Z" fill="#42E8E0"/>
<path d="M937.1 170.223L951.484 178.487C953.283 179.538 952.983 181.341 951.035 182.393C948.937 183.595 945.94 183.745 944.142 182.694L929.757 174.43C927.959 173.378 928.259 171.575 930.207 170.523C932.305 169.321 935.301 169.171 937.1 170.223Z" fill="#42E8E0"/>
<g opacity="0.3">
<path opacity="0.3" d="M1128 422.646V415.884L1126.2 414.833C1125.6 417.988 1122.01 420.091 1118.86 420.542L1097.58 433.013L1088.29 436.318L1058.77 420.993L1059.52 420.542C1056.97 419.34 1055.63 416.636 1054.28 414.232L1052.33 415.434L1051.13 415.734V422.646C1051.13 423.998 1052.03 425.35 1053.68 426.252L1083.35 443.38C1086.79 445.334 1092.49 445.334 1095.93 443.38L1125.6 426.252C1127.25 425.2 1128.15 423.998 1128.15 422.646C1128 422.646 1128 422.646 1128 422.646Z" fill="url(#paint4_linear)"/>
<path opacity="0.3" d="M1118.71 420.542L1097.43 433.013L1089.34 435.868V445.033C1091.59 445.033 1093.84 444.582 1095.63 443.531L1125.3 426.402C1126.95 425.35 1127.85 424.148 1127.85 422.796V422.646V415.884L1126.2 414.983H1126.05C1125.45 417.988 1121.86 420.091 1118.71 420.542Z" fill="#0F054C"/>
<g opacity="0.3">
<path opacity="0.3" d="M1083.2 436.619L1053.53 419.49C1050.08 417.537 1050.08 414.231 1053.53 412.128L1083.2 394.999C1086.64 393.046 1092.34 393.046 1095.78 394.999L1125.45 412.128C1128.9 414.081 1128.9 417.387 1125.45 419.34L1095.78 436.619C1092.19 438.723 1086.64 438.723 1083.2 436.619Z" fill="url(#paint5_linear)"/>
</g>
<g opacity="0.3">
<path opacity="0.3" d="M1083.2 436.619L1053.53 419.49C1050.08 417.537 1050.08 414.231 1053.53 412.128L1083.2 394.999C1086.64 393.046 1092.34 393.046 1095.78 394.999L1125.45 412.128C1128.9 414.081 1128.9 417.387 1125.45 419.34L1095.78 436.619C1092.19 438.723 1086.64 438.723 1083.2 436.619Z" fill="#0F054C"/>
</g>
</g>
<path d="M1089.49 414.983C1087.39 414.983 1085.44 414.532 1083.95 413.631L1054.28 396.502C1052.78 395.6 1051.88 394.398 1051.88 393.046C1051.88 391.694 1052.78 390.492 1054.28 389.59L1083.95 372.462C1087.09 370.659 1092.04 370.659 1095.18 372.462L1124.85 389.59C1126.35 390.492 1127.25 391.694 1127.25 393.046C1127.25 394.398 1126.35 395.6 1124.85 396.502L1095.03 413.631C1093.54 414.532 1091.44 414.983 1089.49 414.983ZM1089.49 371.71C1087.54 371.71 1085.59 372.161 1084.1 372.912L1054.43 390.041C1053.08 390.792 1052.33 391.844 1052.33 393.046C1052.33 394.098 1053.08 395.15 1054.43 396.051L1084.1 413.18C1087.09 414.833 1091.74 414.833 1094.73 413.18L1124.4 396.051C1125.75 395.3 1126.5 394.248 1126.5 393.046C1126.5 391.844 1125.75 390.943 1124.4 390.041L1094.73 372.912C1093.24 372.161 1091.29 371.71 1089.49 371.71Z" fill="#42E8E0"/>
<path opacity="0.4" d="M1128 386.435V376.218L1126.2 375.166C1125.75 378.321 1122.01 380.425 1118.86 380.876L1097.58 393.347L1088.29 396.652L1058.77 381.326L1059.52 380.876C1056.97 379.674 1055.63 376.969 1054.28 374.565L1052.33 375.767L1051.13 376.068V386.435C1051.13 387.787 1052.03 389.139 1053.68 390.041L1083.35 407.17C1086.79 409.123 1092.49 409.123 1095.93 407.17L1125.6 390.041C1127.25 388.989 1128.15 387.787 1128.15 386.435C1128 386.585 1128 386.585 1128 386.435Z" fill="#42E8E0"/>
<path d="M1128 377.42V370.659L1126.2 369.607C1125.75 372.762 1122.01 374.866 1118.86 375.316L1097.58 387.787L1088.29 391.093L1058.77 375.767L1059.52 375.316C1056.97 374.114 1055.63 371.41 1054.28 369.006L1052.33 370.208L1051.13 370.508V377.42C1051.13 378.772 1052.03 380.124 1053.68 381.026L1083.35 398.155C1086.79 400.108 1092.49 400.108 1095.93 398.155L1125.6 381.026C1127.25 379.974 1128.15 378.772 1128.15 377.42C1128 377.57 1128 377.57 1128 377.42Z" fill="url(#paint6_linear)"/>
<path opacity="0.3" d="M1118.71 375.467L1097.43 387.937L1089.34 390.792V399.958C1091.59 399.958 1093.84 399.507 1095.63 398.455L1125.3 381.326C1126.95 380.275 1127.85 379.073 1127.85 377.72V377.57V370.809L1126.2 369.907H1126.05C1125.45 372.912 1121.86 375.016 1118.71 375.467Z" fill="#0F054C"/>
<path d="M1083.2 391.543L1053.53 374.415C1050.08 372.462 1050.08 369.156 1053.53 367.052L1083.2 349.924C1086.64 347.971 1092.34 347.971 1095.78 349.924L1125.45 367.052C1128.9 369.006 1128.9 372.311 1125.45 374.415L1095.78 391.543C1092.19 393.497 1086.64 393.497 1083.2 391.543Z" fill="url(#paint7_linear)"/>
<path d="M1125.3 374.415L1095.78 391.543C1092.34 393.497 1086.64 393.497 1083.2 391.543L1053.53 374.415C1052.03 373.513 1051.13 372.311 1050.98 371.26C1050.83 372.762 1051.58 374.265 1053.53 375.316L1083.2 392.445C1086.64 394.398 1092.34 394.398 1095.78 392.445L1125.45 375.316C1127.4 374.265 1128.3 372.762 1128 371.26C1127.7 372.311 1126.95 373.513 1125.3 374.415Z" fill="white"/>
<g opacity="0.3">
<path opacity="0.3" d="M995.988 462.612V455.851L994.19 454.799C993.74 457.955 989.994 460.058 986.848 460.509L965.57 472.98L956.28 476.285L926.76 460.96L927.51 460.509C924.962 459.307 923.614 456.602 922.265 454.198L920.317 455.4L919.118 455.701V462.612C919.118 463.965 920.017 465.317 921.666 466.219L951.335 483.347C954.781 485.3 960.475 485.3 963.922 483.347L993.59 466.219C995.239 465.167 996.138 463.965 996.138 462.612C995.988 462.763 995.988 462.763 995.988 462.612Z" fill="url(#paint8_linear)"/>
<path opacity="0.3" d="M986.698 460.509L965.42 472.98L957.329 475.835V485C959.576 485 961.824 484.549 963.622 483.497L993.291 466.369C994.939 465.317 995.838 464.115 995.838 462.763V462.612V455.851L994.19 454.95H994.04C993.591 458.105 989.845 460.208 986.698 460.509Z" fill="#0F054C"/>
<g opacity="0.3">
<path opacity="0.3" d="M951.185 476.736L921.516 459.607C918.07 457.654 918.07 454.349 921.516 452.245L951.185 435.116C954.631 433.163 960.325 433.163 963.772 435.116L993.441 452.245C996.887 454.198 996.887 457.504 993.441 459.607L963.772 476.736C960.325 478.689 954.631 478.689 951.185 476.736Z" fill="url(#paint9_linear)"/>
</g>
<g opacity="0.3">
<path opacity="0.3" d="M951.185 476.736L921.516 459.607C918.07 457.654 918.07 454.349 921.516 452.245L951.185 435.116C954.631 433.163 960.325 433.163 963.772 435.116L993.441 452.245C996.887 454.198 996.887 457.504 993.441 459.607L963.772 476.736C960.325 478.689 954.631 478.689 951.185 476.736Z" fill="#0F054C"/>
</g>
</g>
<path d="M957.478 451.794C955.381 451.794 953.433 451.344 951.934 450.442L922.265 433.313C920.767 432.412 919.868 431.21 919.868 429.858C919.868 428.505 920.767 427.303 922.265 426.402L951.934 409.273C955.081 407.47 960.026 407.47 963.172 409.273L992.841 426.402C994.34 427.303 995.239 428.505 995.239 429.858C995.239 431.21 994.34 432.412 992.841 433.313L963.172 450.442C961.524 451.344 959.426 451.794 957.478 451.794ZM952.084 449.991C955.081 451.644 959.726 451.644 962.723 449.991L992.392 432.863C993.74 432.111 994.49 431.06 994.49 429.858C994.49 428.806 993.74 427.754 992.392 426.853L962.723 409.724C959.726 408.071 955.081 408.071 952.084 409.724L922.415 426.853C921.066 427.604 920.317 428.656 920.317 429.858C920.317 430.909 921.066 431.961 922.415 432.863L952.084 449.991Z" fill="#42E8E0"/>
<path opacity="0.4" d="M995.988 423.247V413.029L994.19 411.978C993.74 415.133 989.994 417.236 986.848 417.687L965.57 430.158L956.28 433.464L926.76 418.138L927.51 417.687C924.962 416.485 923.614 413.781 922.265 411.377L920.317 412.579L919.118 412.879V423.247C919.118 424.599 920.017 425.951 921.666 426.853L951.185 444.132C954.631 446.085 960.325 446.085 963.772 444.132L993.441 427.003C995.089 425.951 995.988 424.749 995.988 423.397C995.988 423.397 995.988 423.397 995.988 423.247Z" fill="#42E8E0"/>
<path d="M995.988 414.231V407.47L994.19 406.418C993.74 409.574 989.994 411.677 986.848 412.128L965.57 424.599L956.28 427.904L926.76 412.579L927.51 412.128C924.962 410.926 923.614 408.221 922.265 405.817L920.317 407.019L919.118 407.32V414.231C919.118 415.584 920.017 416.936 921.666 417.838L951.185 435.116C954.631 437.07 960.325 437.07 963.772 435.116L993.441 417.988C995.089 416.936 995.988 415.734 995.988 414.382V414.231Z" fill="url(#paint10_linear)"/>
<path opacity="0.3" d="M986.698 412.128L965.42 424.599L957.329 427.454V436.619C959.576 436.619 961.824 436.168 963.622 435.116L993.291 417.988C994.939 416.936 995.838 415.734 995.838 414.382V414.231V407.47L994.19 406.569H994.04C993.591 409.724 989.845 411.677 986.698 412.128Z" fill="#0F054C"/>
<path d="M951.185 428.355L921.516 411.076C918.07 409.123 918.07 405.817 921.516 403.714L951.185 386.585C954.631 384.632 960.325 384.632 963.772 386.585L993.441 403.714C996.887 405.667 996.887 408.973 993.441 410.926L963.772 428.055C960.325 430.308 954.631 430.308 951.185 428.355Z" fill="url(#paint11_linear)"/>
<path d="M957.478 425.2C955.68 425.2 953.882 424.749 952.384 423.998L929.158 410.625C927.809 409.874 927.06 408.672 927.06 407.62C927.06 406.418 927.809 405.367 929.158 404.615L952.384 391.243C955.231 389.59 959.726 389.59 962.423 391.243L985.649 404.615C986.997 405.367 987.747 406.569 987.747 407.62C987.747 408.822 986.997 409.874 985.649 410.625L962.423 423.998C961.074 424.749 959.276 425.2 957.478 425.2ZM952.683 423.547C955.38 425.05 959.576 425.05 962.273 423.547L985.499 410.175C986.698 409.423 987.447 408.522 987.447 407.62C987.447 406.569 986.698 405.667 985.499 405.066L962.273 391.694C959.576 390.191 955.38 390.191 952.683 391.694L929.458 405.066C928.259 405.817 927.51 406.719 927.51 407.62C927.51 408.672 928.259 409.574 929.458 410.175L952.683 423.547Z" fill="#5351AF"/>
<path d="M993.441 411.076L963.772 428.205C960.325 430.158 954.631 430.158 951.185 428.205L921.516 411.076C920.018 410.175 919.119 408.973 918.969 407.921C918.819 409.423 919.568 410.926 921.516 411.978L951.185 429.106C954.631 431.06 960.325 431.06 963.772 429.106L993.441 411.978C995.389 410.926 996.288 409.423 995.988 407.921C995.838 409.123 994.939 410.175 993.441 411.076Z" fill="white"/>
<g opacity="0.3">
<path opacity="0.3" d="M742.453 223.712V216.951L740.655 215.899C740.205 219.055 736.459 221.158 733.313 221.609L712.035 234.08L702.745 237.385L673.226 222.06L673.975 221.609C671.427 220.407 670.079 217.702 668.73 215.298L666.782 216.5L665.583 216.801V223.712C665.583 225.065 666.483 226.417 668.131 227.318L697.8 244.447C701.246 246.4 706.94 246.4 710.387 244.447L739.906 227.469C741.554 226.417 742.453 225.215 742.453 223.863C742.453 223.863 742.453 223.863 742.453 223.712Z" fill="url(#paint12_linear)"/>
<path opacity="0.3" d="M733.313 221.759L712.035 234.23L703.943 237.085V246.25C706.191 246.25 708.439 245.799 710.237 244.748L739.906 227.469C741.554 226.417 742.453 225.215 742.453 223.863V223.712V216.951L740.805 216.05H740.655C740.056 219.205 736.31 221.308 733.313 221.759Z" fill="#0F054C"/>
<g opacity="0.3">
<path opacity="0.3" d="M697.65 237.836L667.981 220.707C664.535 218.754 664.535 215.449 667.981 213.345L697.65 196.216C701.096 194.263 706.79 194.263 710.237 196.216L739.906 213.345C743.352 215.298 743.352 218.604 739.906 220.707L710.237 237.836C706.79 239.789 701.096 239.789 697.65 237.836Z" fill="url(#paint13_linear)"/>
</g>
<g opacity="0.3">
<path opacity="0.3" d="M697.65 237.836L667.981 220.707C664.535 218.754 664.535 215.449 667.981 213.345L697.65 196.216C701.096 194.263 706.79 194.263 710.237 196.216L739.906 213.345C743.352 215.298 743.352 218.604 739.906 220.707L710.237 237.836C706.79 239.789 701.096 239.789 697.65 237.836Z" fill="#0F054C"/>
</g>
</g>
<path d="M703.943 217.252C701.846 217.252 699.898 216.801 698.399 215.899L668.73 198.771C667.232 197.869 666.333 196.667 666.333 195.315C666.333 193.963 667.232 192.761 668.73 191.859L698.399 174.73C701.546 172.927 706.491 172.927 709.637 174.73L739.306 191.859C740.805 192.761 741.704 193.963 741.704 195.315C741.704 196.667 740.805 197.869 739.306 198.771L709.488 215.899C707.989 216.801 706.041 217.252 703.943 217.252ZM703.943 173.979C701.995 173.979 700.047 174.43 698.549 175.181L669.03 192.46C667.681 193.211 666.932 194.263 666.932 195.465C666.932 196.517 667.681 197.569 669.03 198.47L698.699 215.599C701.696 217.252 706.341 217.252 709.338 215.599L739.007 198.47C740.355 197.719 741.105 196.667 741.105 195.465C741.105 194.413 740.355 193.362 739.007 192.46L709.338 175.331C707.839 174.43 705.891 173.979 703.943 173.979Z" fill="#42E8E0"/>
<path opacity="0.4" d="M742.453 188.854V178.637L740.655 177.585C740.205 180.74 736.459 182.844 733.313 183.295L712.035 195.766L702.745 199.071L673.225 183.746L673.975 183.295C671.427 182.093 670.079 179.388 668.73 176.984L666.632 178.186L665.434 178.487V188.854C665.434 190.206 666.333 191.559 667.981 192.46L697.65 209.739C701.096 211.692 706.79 211.692 710.237 209.739L739.906 192.61C741.554 191.559 742.453 190.357 742.453 189.004C742.453 188.854 742.453 188.854 742.453 188.854Z" fill="#42E8E0"/>
<path d="M742.453 179.689V172.927L740.655 171.876C740.205 175.031 736.459 177.134 733.313 177.585L712.035 190.206L702.745 193.512L673.226 178.186L673.975 177.735C671.427 176.533 670.079 173.829 668.73 171.425L666.782 172.627L665.583 172.927V179.839C665.583 181.191 666.483 182.543 668.131 183.445L697.65 200.724C701.096 202.677 706.79 202.677 710.237 200.724L739.906 183.445C741.554 182.393 742.453 181.191 742.453 179.839C742.453 179.839 742.453 179.839 742.453 179.689Z" fill="url(#paint14_linear)"/>
<path opacity="0.3" d="M733.313 177.735L712.035 190.206L703.943 193.061V202.226C706.191 202.226 708.439 201.776 710.237 200.724L739.906 183.445C741.554 182.393 742.453 181.191 742.453 179.839V179.689V172.927L740.805 172.026H740.655C740.056 175.181 736.31 177.285 733.313 177.735Z" fill="#0F054C"/>
<path d="M673.825 177.735L701.846 161.508C702.894 160.907 704.693 160.907 705.891 161.508L733.462 177.435L733.163 177.585C736.309 177.134 740.056 175.031 740.505 171.876L709.637 154.747L700.647 152.343L693.304 156.7L668.58 171.425C669.929 173.979 671.278 176.684 673.825 177.735Z" fill="url(#paint15_linear)"/>
<path opacity="0.3" d="M703.943 153.244L700.647 152.343L693.304 156.7L668.58 171.425C669.929 173.829 671.278 176.533 673.825 177.735L701.846 161.508C702.445 161.208 703.194 161.057 703.793 161.057V153.244H703.943Z" fill="#0F054C"/>
<path d="M697.65 193.812L667.981 176.684C664.535 174.73 664.535 171.425 667.981 169.321L697.65 152.193C701.096 150.239 706.79 150.239 710.237 152.193L739.906 169.321C743.352 171.275 743.352 174.58 739.906 176.533L710.237 193.812C706.79 195.766 701.096 195.766 697.65 193.812ZM706.041 154.747C704.992 154.146 703.194 154.146 701.995 154.747L672.326 171.876C671.278 172.477 671.278 173.528 672.326 174.28L701.995 191.408C703.044 192.009 704.842 192.009 706.041 191.408L735.71 174.28C736.759 173.679 736.759 172.627 735.71 171.876L706.041 154.747Z" fill="url(#paint16_linear)"/>
<path d="M735.56 171.876L706.041 154.747C704.992 154.146 703.194 154.146 701.995 154.747L672.326 171.876C671.577 172.326 671.278 172.927 671.577 173.528C671.727 173.228 671.877 172.927 672.326 172.777L701.995 155.648C703.044 155.047 704.842 155.047 706.041 155.648L735.71 172.777C736.01 172.927 736.31 173.228 736.459 173.528C736.609 172.927 736.31 172.326 735.56 171.876Z" fill="white"/>
<path d="M739.906 176.684L710.237 193.812C706.791 195.766 701.097 195.766 697.65 193.812L667.981 176.684C666.483 175.782 665.584 174.58 665.434 173.528C665.284 175.031 666.033 176.533 667.981 177.585L697.65 194.714C701.097 196.667 706.791 196.667 710.237 194.714L739.906 177.435C741.854 176.383 742.753 174.881 742.453 173.378C742.303 174.58 741.404 175.782 739.906 176.684Z" fill="white"/>
<path d="M698.549 193.362L668.88 176.233C665.883 174.43 665.883 171.725 668.88 169.922L698.549 152.643C701.546 150.84 706.491 150.84 709.488 152.643L739.156 169.772C742.153 171.575 742.153 174.28 739.156 176.083L709.488 193.362C706.341 195.014 701.546 195.014 698.549 193.362ZM706.79 154.146C705.292 153.244 702.595 153.244 701.096 154.146L671.427 171.425C669.929 172.326 669.929 173.829 671.427 174.73L701.096 191.859C702.595 192.761 705.292 192.761 706.79 191.859L736.459 174.73C737.958 173.829 737.958 172.326 736.459 171.425L706.79 154.146Z" fill="url(#paint17_linear)"/>
<path opacity="0.4" d="M706.041 154.747C704.992 154.146 703.194 154.146 701.995 154.747L672.326 171.876C671.278 172.477 671.278 173.528 672.326 174.28L701.995 191.408C703.044 192.009 704.842 192.009 706.041 191.408L735.71 174.28C736.759 173.679 736.759 172.627 735.71 171.876L706.041 154.747Z" fill="#42E8E0"/>
<path opacity="0.5" d="M736.459 172.927V67H671.427V172.927C671.427 173.378 671.727 173.829 672.326 174.129L701.995 191.258C703.044 191.859 704.842 191.859 706.041 191.258L735.71 174.129C736.16 173.829 736.459 173.378 736.459 172.927Z" fill="url(#paint18_linear)"/>
<path d="M939.647 257.369C939.647 240.541 927.959 220.257 913.424 211.843C906.232 207.635 899.639 207.185 894.844 210.039L889.899 212.894L891.398 213.045C888.85 216.2 887.202 221.008 887.202 227.018C887.202 243.846 898.89 264.13 913.424 272.544C918.369 275.399 923.014 276.451 927.06 276L926.91 277.352L932.005 274.347L932.155 274.197C936.8 271.492 939.647 265.633 939.647 257.369Z" fill="#9FFFF8"/>
<path d="M926.845 277.369C937.094 271.436 937.116 252.237 926.896 234.487C916.676 216.737 900.082 207.157 889.834 213.091C879.586 219.024 879.563 238.223 889.783 255.973C900.004 273.723 916.597 283.302 926.845 277.369Z" fill="#42E8E0"/>
<path d="M878.361 184.948C888.101 171.275 890.349 147.835 883.306 132.66C879.86 124.997 874.765 120.94 869.221 120.339L863.527 119.889L864.575 120.79C860.53 121.842 856.634 124.847 853.187 129.805C843.448 143.478 841.2 166.917 848.243 182.093C850.64 187.352 853.787 190.958 857.233 192.761L856.334 193.812L862.178 194.263H862.478C867.872 194.864 873.566 191.709 878.361 184.948Z" fill="#9FFFF8"/>
<path d="M881.363 158.903C883.318 138.501 875.353 121.041 863.573 119.907C851.794 118.772 840.66 134.391 838.705 154.793C836.75 175.196 844.715 192.655 856.495 193.79C868.274 194.924 879.408 179.305 881.363 158.903Z" fill="#42E8E0"/>
<g opacity="0.1">
<path opacity="0.1" d="M887.202 295.232C887.202 278.404 875.514 258.12 860.979 249.706C853.787 245.499 847.194 245.048 842.399 247.903L837.454 250.758L838.952 250.908C836.405 254.063 834.757 258.871 834.757 264.881C834.757 281.71 846.445 301.994 860.979 310.408C865.924 313.262 870.569 314.314 874.615 313.863L874.465 315.216L879.56 312.211L879.71 312.06C884.355 309.356 887.202 303.496 887.202 295.232Z" fill="#9FFFF8"/>
<path opacity="0.1" d="M874.525 315.178C884.774 309.245 884.796 290.046 874.576 272.296C864.356 254.546 847.762 244.967 837.514 250.9C827.266 256.833 827.243 276.032 837.463 293.782C847.684 311.532 864.277 321.111 874.525 315.178Z" fill="#42E8E0"/>
</g>
<path opacity="0.4" d="M857.683 322.578C839.552 322.578 821.571 318.521 807.785 310.558C794.449 302.745 787.107 292.528 787.107 281.559C787.107 270.591 794.449 260.224 807.785 252.561C835.356 236.634 880.159 236.634 907.581 252.561C920.917 260.374 928.259 270.591 928.259 281.559C928.259 292.528 920.917 302.895 907.581 310.558L907.431 310.257L907.581 310.558C893.795 318.671 875.814 322.578 857.683 322.578ZM857.683 241.142C839.702 241.142 821.72 245.048 808.085 253.011C794.899 260.674 787.556 270.741 787.556 281.559C787.556 292.377 794.899 302.444 808.085 310.107C835.506 326.034 880.01 326.034 907.431 310.107C920.617 302.444 927.959 292.377 927.959 281.559C927.959 270.741 920.617 260.674 907.431 253.011C893.645 245.048 875.664 241.142 857.683 241.142Z" fill="#42E8E0"/>
<path opacity="0.2" d="M857.683 333.697C834.757 333.697 811.831 328.588 794.299 318.521C777.367 308.755 767.927 295.683 767.927 281.71C767.927 267.736 777.217 254.664 794.299 244.898C829.212 224.614 886.003 224.614 920.916 244.898C937.849 254.664 947.289 267.736 947.289 281.71C947.289 295.683 937.999 308.755 920.916 318.521C903.535 328.588 880.609 333.697 857.683 333.697ZM857.683 230.173C834.906 230.173 811.98 235.132 794.599 245.349C777.816 255.115 768.526 268.037 768.526 281.71C768.526 295.382 777.816 308.304 794.599 318.07C829.362 338.204 886.003 338.204 920.767 318.07C937.549 308.304 946.839 295.382 946.839 281.71C946.839 268.037 937.549 255.115 920.767 245.349C903.385 235.132 880.459 230.173 857.683 230.173Z" fill="#42E8E0"/>
<path d="M857.683 314.014C843.448 314.014 829.212 310.858 818.274 304.548C807.785 298.387 801.941 290.274 801.941 281.559C801.941 272.845 807.785 264.731 818.274 258.571C840.001 245.95 875.214 245.95 896.942 258.571C907.431 264.731 913.274 272.845 913.274 281.559C913.274 290.274 907.431 298.387 896.942 304.548L896.792 304.247L896.942 304.548C886.153 310.858 871.918 314.014 857.683 314.014ZM857.683 249.856C843.597 249.856 829.362 253.011 818.574 259.172C808.234 265.182 802.39 273.145 802.39 281.71C802.39 290.274 808.084 298.237 818.574 304.247C840.151 316.718 875.214 316.718 896.792 304.247C907.131 298.237 912.975 290.274 912.975 281.71C912.975 273.295 907.281 265.182 896.792 259.172C886.003 252.861 871.768 249.856 857.683 249.856Z" fill="#42E8E0"/>
<path d="M887.202 295.232C887.202 278.404 875.514 258.12 860.979 249.706C853.787 245.499 847.194 245.048 842.399 247.903L837.454 250.758L838.952 250.908C836.405 254.063 834.757 258.871 834.757 264.881C834.757 281.71 846.445 301.994 860.979 310.408C865.924 313.262 870.569 314.314 874.615 313.863L874.465 315.216L879.56 312.211L879.71 312.06C884.355 309.356 887.202 303.496 887.202 295.232Z" fill="#9FFFF8"/>
<path d="M874.525 315.178C884.774 309.245 884.796 290.046 874.576 272.296C864.356 254.546 847.762 244.967 837.514 250.9C827.266 256.833 827.243 276.032 837.463 293.782C847.684 311.532 864.277 321.111 874.525 315.178Z" fill="#42E8E0"/>
<path opacity="0.4" d="M787.256 367.804L704.992 320.174C702.595 318.822 702.595 315.216 704.992 313.863L717.579 306.501C721.775 304.097 727.019 304.097 731.215 306.501L813.479 354.131C815.876 355.483 815.876 359.089 813.479 360.441L800.892 367.804C796.697 370.208 791.452 370.208 787.256 367.804Z" fill="#24126A"/>
<path d="M746.05 319.122L733.013 311.459L735.561 309.957L748.747 317.62L746.05 319.122Z" fill="#42E8E0"/>
<path d="M783.211 341.059L779.165 338.805L781.862 337.303L785.908 339.556L783.211 341.059Z" fill="#42E8E0"/>
<path d="M753.692 323.63L749.646 321.226L752.343 319.723L756.389 322.127L753.692 323.63Z" fill="#42E8E0"/>
<path d="M794.149 358.338C791.752 358.338 789.354 357.737 787.256 356.535L704.992 308.905C703.794 308.154 703.044 306.952 703.044 305.449C703.044 303.947 703.794 302.745 704.992 301.994L717.579 294.631C721.925 292.227 727.169 292.227 731.515 294.631L813.779 342.261C814.977 343.012 815.727 344.214 815.727 345.717C815.727 347.219 814.977 348.421 813.779 349.173L801.192 356.535C798.944 357.737 796.547 358.338 794.149 358.338ZM724.322 293.279C722.075 293.279 719.677 293.88 717.729 295.082L705.142 302.444C704.093 303.045 703.494 304.097 703.494 305.299C703.494 306.501 704.093 307.553 705.142 308.154L787.406 355.784C791.452 358.188 796.547 358.188 800.742 355.784L813.329 348.421C814.378 347.82 814.977 346.768 814.977 345.566C814.977 344.364 814.378 343.313 813.329 342.712L731.065 295.082C728.967 293.88 726.72 293.279 724.322 293.279Z" fill="#42E8E0"/>
</g>
<defs>
<linearGradient id="paint0_linear" x1="-87" y1="308.5" x2="1826" y2="298.5" gradientUnits="userSpaceOnUse">
<stop stop-color="#18A9DF"/>
<stop offset="1" stop-color="#1A0066"/>
</linearGradient>
<linearGradient id="paint1_linear" x1="650.297" y1="295.521" x2="1085.28" y2="295.521" gradientUnits="userSpaceOnUse">
<stop stop-color="#BCBEFF"/>
<stop offset="0.151" stop-color="#A3A7F5"/>
<stop offset="0.3866" stop-color="#8289E8"/>
<stop offset="0.6124" stop-color="#6A73DF"/>
<stop offset="0.8221" stop-color="#5C66D9"/>
<stop offset="1" stop-color="#5761D7"/>
</linearGradient>
<linearGradient id="paint2_linear" x1="928.372" y1="357.228" x2="806.529" y2="195.976" gradientUnits="userSpaceOnUse">
<stop stop-color="#42E8E0"/>
<stop offset="0.1055" stop-color="#37B6BF"/>
<stop offset="0.2197" stop-color="#2C87A1"/>
<stop offset="0.338" stop-color="#235F87"/>
<stop offset="0.4587" stop-color="#1C3F72"/>
<stop offset="0.5824" stop-color="#162561"/>
<stop offset="0.7105" stop-color="#121355"/>
<stop offset="0.8458" stop-color="#10084E"/>
<stop offset="1" stop-color="#0F054C"/>
</linearGradient>
<radialGradient id="paint3_radial" cx="0" cy="0" r="1" gradientUnits="userSpaceOnUse" gradientTransform="translate(856.991 280.567) scale(340.46 341.388)">
<stop stop-color="#42E8E0"/>
<stop offset="0.1055" stop-color="#37B6BF"/>
<stop offset="0.2197" stop-color="#2C87A1"/>
<stop offset="0.338" stop-color="#235F87"/>
<stop offset="0.4587" stop-color="#1C3F72"/>
<stop offset="0.5824" stop-color="#162561"/>
<stop offset="0.7105" stop-color="#121355"/>
<stop offset="0.8458" stop-color="#10084E"/>
<stop offset="1" stop-color="#0F054C"/>
</radialGradient>
<linearGradient id="paint4_linear" x1="1058.55" y1="402.479" x2="1119.78" y2="437.736" gradientUnits="userSpaceOnUse">
<stop stop-color="#BCBEFF"/>
<stop offset="0.2271" stop-color="#AAADF8"/>
<stop offset="0.6802" stop-color="#7C83E5"/>
<stop offset="1" stop-color="#5761D7"/>
</linearGradient>
<linearGradient id="paint5_linear" x1="1050.88" y1="415.861" x2="1127.95" y2="415.861" gradientUnits="userSpaceOnUse">
<stop stop-color="#E9E9FD"/>
<stop offset="0.3601" stop-color="#D3D2F9"/>
<stop offset="0.7062" stop-color="#C5C4F7"/>
<stop offset="1" stop-color="#C0BFF6"/>
</linearGradient>
<linearGradient id="paint6_linear" x1="1058.55" y1="357.346" x2="1119.78" y2="392.603" gradientUnits="userSpaceOnUse">
<stop stop-color="#BCBEFF"/>
<stop offset="0.2271" stop-color="#AAADF8"/>
<stop offset="0.6802" stop-color="#7C83E5"/>
<stop offset="1" stop-color="#5761D7"/>
</linearGradient>
<linearGradient id="paint7_linear" x1="1050.88" y1="370.728" x2="1127.95" y2="370.728" gradientUnits="userSpaceOnUse">
<stop stop-color="#E9E9FD"/>
<stop offset="0.3601" stop-color="#D3D2F9"/>
<stop offset="0.7062" stop-color="#C5C4F7"/>
<stop offset="1" stop-color="#C0BFF6"/>
</linearGradient>
<linearGradient id="paint8_linear" x1="926.583" y1="442.524" x2="987.817" y2="477.781" gradientUnits="userSpaceOnUse">
<stop stop-color="#BCBEFF"/>
<stop offset="0.2271" stop-color="#AAADF8"/>
<stop offset="0.6802" stop-color="#7C83E5"/>
<stop offset="1" stop-color="#5761D7"/>
</linearGradient>
<linearGradient id="paint9_linear" x1="918.916" y1="455.906" x2="995.989" y2="455.906" gradientUnits="userSpaceOnUse">
<stop stop-color="#E9E9FD"/>
<stop offset="0.3601" stop-color="#D3D2F9"/>
<stop offset="0.7062" stop-color="#C5C4F7"/>
<stop offset="1" stop-color="#C0BFF6"/>
</linearGradient>
<linearGradient id="paint10_linear" x1="926.583" y1="394.116" x2="987.817" y2="429.373" gradientUnits="userSpaceOnUse">
<stop stop-color="#BCBEFF"/>
<stop offset="0.2271" stop-color="#AAADF8"/>
<stop offset="0.6802" stop-color="#7C83E5"/>
<stop offset="1" stop-color="#5761D7"/>
</linearGradient>
<linearGradient id="paint11_linear" x1="918.916" y1="407.497" x2="995.989" y2="407.497" gradientUnits="userSpaceOnUse">
<stop stop-color="#E9E9FD"/>
<stop offset="0.3601" stop-color="#D3D2F9"/>
<stop offset="0.7062" stop-color="#C5C4F7"/>
<stop offset="1" stop-color="#C0BFF6"/>
</linearGradient>
<linearGradient id="paint12_linear" x1="673.098" y1="203.647" x2="734.332" y2="238.904" gradientUnits="userSpaceOnUse">
<stop stop-color="#BCBEFF"/>
<stop offset="0.2271" stop-color="#AAADF8"/>
<stop offset="0.6802" stop-color="#7C83E5"/>
<stop offset="1" stop-color="#5761D7"/>
</linearGradient>
<linearGradient id="paint13_linear" x1="665.43" y1="217.028" x2="742.503" y2="217.028" gradientUnits="userSpaceOnUse">
<stop stop-color="#E9E9FD"/>
<stop offset="0.3601" stop-color="#D3D2F9"/>
<stop offset="0.7062" stop-color="#C5C4F7"/>
<stop offset="1" stop-color="#C0BFF6"/>
</linearGradient>
<linearGradient id="paint14_linear" x1="673.098" y1="159.642" x2="734.332" y2="194.9" gradientUnits="userSpaceOnUse">
<stop stop-color="#BCBEFF"/>
<stop offset="0.2271" stop-color="#AAADF8"/>
<stop offset="0.6802" stop-color="#7C83E5"/>
<stop offset="1" stop-color="#5761D7"/>
</linearGradient>
<linearGradient id="paint15_linear" x1="676.768" y1="157.258" x2="731.376" y2="188.701" gradientUnits="userSpaceOnUse">
<stop offset="0.2421" stop-color="#5761D7"/>
<stop offset="0.3923" stop-color="#7A82E5"/>
<stop offset="0.5463" stop-color="#979CF0"/>
<stop offset="0.7" stop-color="#ACAFF8"/>
<stop offset="0.8519" stop-color="#B8BAFD"/>
<stop offset="1" stop-color="#BCBEFF"/>
</linearGradient>
<linearGradient id="paint16_linear" x1="665.43" y1="173.024" x2="742.503" y2="173.024" gradientUnits="userSpaceOnUse">
<stop stop-color="#E9E9FD"/>
<stop offset="0.3601" stop-color="#D3D2F9"/>
<stop offset="0.7062" stop-color="#C5C4F7"/>
<stop offset="1" stop-color="#C0BFF6"/>
</linearGradient>
<linearGradient id="paint17_linear" x1="666.613" y1="173.024" x2="741.32" y2="173.024" gradientUnits="userSpaceOnUse">
<stop stop-color="#E9E9FD"/>
<stop offset="0.3601" stop-color="#D3D2F9"/>
<stop offset="0.7062" stop-color="#C5C4F7"/>
<stop offset="1" stop-color="#C0BFF6"/>
</linearGradient>
<linearGradient id="paint18_linear" x1="703.965" y1="191.832" x2="703.965" y2="67" gradientUnits="userSpaceOnUse">
<stop stop-color="#42E8E0"/>
<stop offset="0.0001" stop-color="#37B6BF"/>
<stop offset="0.145833" stop-color="#10084E" stop-opacity="0.7"/>
<stop offset="0.28125" stop-color="#121355" stop-opacity="0.6"/>
<stop offset="0.395833" stop-color="#162561" stop-opacity="0.5"/>
<stop offset="0.536458" stop-color="#1C3F72"/>
<stop offset="0.9993" stop-color="#0F054C" stop-opacity="0"/>
<stop offset="0.9994" stop-color="#2C87A1"/>
<stop offset="0.9995" stop-color="#235F87" stop-opacity="0"/>
</linearGradient>
<clipPath id="clip0">
<rect width="478" height="418" fill="white" transform="translate(650 67)"/>
</clipPath>
</defs>
</svg>
