<svg width="27" height="22" viewBox="0 0 27 22" fill="none" xmlns="http://www.w3.org/2000/svg">
<path d="M2.28736 9.47095C9.26667 6.36626 13.9206 4.31946 16.2493 3.33055C22.8979 0.507005 24.2795 0.0165256 25.18 0.000157016C25.378 -0.00323241 25.8208 0.0468815 26.1077 0.284527C26.3499 0.48519 26.4165 0.756258 26.4484 0.946508C26.4803 1.13676 26.52 1.57015 26.4884 1.9088C26.1281 5.77401 24.5692 15.1539 23.776 19.483C23.4404 21.3148 22.7796 21.929 22.1399 21.9891C20.7496 22.1197 19.6938 21.051 18.3473 20.1497C16.2401 18.7395 15.0498 17.8615 13.0044 16.4854C10.6407 14.895 12.173 14.0209 13.5201 12.5923C13.8726 12.2185 19.9983 6.52954 20.1169 6.01346C20.1317 5.94892 20.1455 5.70833 20.0055 5.58129C19.8655 5.45425 19.6589 5.4977 19.5098 5.53225C19.2985 5.58122 15.9323 7.85289 9.41132 12.3473C8.45585 13.0172 7.59041 13.3435 6.81501 13.3264C5.96019 13.3076 4.31586 12.833 3.09347 12.4273C1.59416 11.9296 0.402535 11.6666 0.506299 10.8215C0.560345 10.3813 1.15403 9.93111 2.28736 9.47095Z" fill="#9298AB"/>
</svg>
