<svg width="33" height="32" viewBox="0 0 33 32" fill="none" xmlns="http://www.w3.org/2000/svg">
<path fill-rule="evenodd" clip-rule="evenodd" d="M16.5 32C7.66344 32 0.5 24.8366 0.5 16C0.5 7.16344 7.66344 0 16.5 0C25.3366 0 32.5 7.16344 32.5 16C32.5 24.8366 25.3366 32 16.5 32ZM17.1919 12.0074C15.7589 12.6034 12.8949 13.8371 8.59992 15.7083C7.90248 15.9856 7.53714 16.257 7.50388 16.5223C7.44767 16.9706 8.00915 17.1472 8.77374 17.3876C8.87774 17.4203 8.9855 17.4542 9.09598 17.4901C9.84822 17.7346 10.8601 18.0207 11.3862 18.0321C11.8633 18.0424 12.3959 17.8457 12.9839 17.4419C16.9968 14.7331 19.0683 13.3639 19.1983 13.3344C19.2901 13.3136 19.4172 13.2874 19.5034 13.3639C19.5895 13.4405 19.5811 13.5855 19.5719 13.6244C19.5163 13.8615 17.3123 15.9106 16.1717 16.971C15.8161 17.3015 15.5639 17.536 15.5124 17.5896C15.3969 17.7096 15.2791 17.823 15.166 17.9321C14.4672 18.6058 13.9431 19.111 15.195 19.936C15.7967 20.3325 16.2781 20.6603 16.7584 20.9874C17.2829 21.3446 17.806 21.7009 18.4829 22.1446C18.6554 22.2576 18.8201 22.375 18.9805 22.4894C19.5909 22.9246 20.1393 23.3155 20.8168 23.2532C21.2105 23.217 21.6172 22.8468 21.8237 21.7427C22.3118 19.1335 23.2712 13.4801 23.4929 11.1505C23.5123 10.9464 23.4879 10.6851 23.4683 10.5705C23.4486 10.4558 23.4076 10.2924 23.2586 10.1715C23.082 10.0283 22.8095 9.99805 22.6877 10.0001C22.1335 10.01 21.2834 10.3056 17.1919 12.0074Z" fill="#9298AB"/>
</svg>
